<?xml version="1.0" standalone="no"?>
<!DOCTYPE svg PUBLIC "-//W3C//DTD SVG 1.1//EN" "http://www.w3.org/Graphics/SVG/1.1/DTD/svg11.dtd" >
<svg xmlns="http://www.w3.org/2000/svg" xmlns:xlink="http://www.w3.org/1999/xlink" version="1.1">
<metadata>
Created by FontForge 20170731 at Sat Jan 16 01:59:13 2021
 By Aleksey,,,
Copyright (c) Datto, Inc. All rights reserved.
</metadata>
<defs>
<font id="D-DIN-Bold" horiz-adv-x="1228" >
  <font-face 
    font-family="D-DIN"
    font-weight="700"
    font-stretch="normal"
    units-per-em="2048"
    panose-1="2 11 8 4 3 2 2 3 2 4"
    ascent="1702"
    descent="-346"
    x-height="1065"
    cap-height="1413"
    bbox="-330 -344 2484 1839"
    underline-thickness="102"
    underline-position="-307"
    unicode-range="U+000D-FB02"
  />
<missing-glyph 
d="M207 1413h813v-1413h-813v1413zM950 70v1273h-674v-1273h674z" />
    <glyph glyph-name="fi" unicode="fi" horiz-adv-x="1177" 
d="M464 1215q-26 -26 -26 -76v-74h191v-178h-191v-887h-252v887h-112v178h112v63q0 135 77 210q76 75 218 75h148v-172h-84q-55 0 -81 -26zM805 1065h252v-1065h-252v1065zM801 1413h258v-203h-258v203z" />
    <glyph glyph-name="fl" unicode="fl" horiz-adv-x="1271" 
d="M464 1215q-26 -26 -26 -76v-74h191v-178h-191v-887h-252v887h-112v178h112v63q0 135 77 210q76 75 218 75h148v-172h-84q-55 0 -81 -26zM880 84q-85 84 -85 240v1089h254v-1073q0 -67 23 -93q25 -28 77 -28h86v-219h-117q-152 0 -238 84z" />
    <glyph glyph-name=".notdef" 
d="M207 1413h813v-1413h-813v1413zM950 70v1273h-674v-1273h674z" />
    <glyph glyph-name=".null" horiz-adv-x="0" 
 />
    <glyph glyph-name="nonmarkingreturn" unicode="&#xd;" horiz-adv-x="468" 
 />
    <glyph glyph-name="space" unicode=" " horiz-adv-x="468" 
 />
    <glyph glyph-name="exclam" unicode="!" horiz-adv-x="509" 
d="M111 1413h288l-49 -942h-190zM121 266h268v-266h-268v266z" />
    <glyph glyph-name="quotedbl" unicode="&#x22;" horiz-adv-x="780" 
d="M78 1413h239v-610h-239v610zM465 1413h237v-610h-237v610z" />
    <glyph glyph-name="numbersign" unicode="#" horiz-adv-x="1103" 
d="M883 831l-29 -225h162v-188h-187l-55 -418h-213l55 418h-217l-55 -418h-211l55 418h-151v188h176l31 225h-156v189h180l51 393h211l-51 -393h217l52 393h210l-51 -393h160v-189h-184zM672 831h-217l-31 -225h217z" />
    <glyph glyph-name="dollar" unicode="$" horiz-adv-x="1028" 
d="M842 197q-83 -98 -234 -127v-193h-211v189q-153 23 -241 125q-90 105 -97 274h236q12 -102 60 -144t145 -42q176 0 176 159q0 72 -35 110q-34 37 -113 52l-100 18q-171 30 -255 118q-83 88 -83 241q0 152 82 250q82 99 225 127v162h211v-164q132 -28 211 -124
q77 -94 88 -247h-241q-7 85 -50 128q-40 40 -122 40q-77 0 -117 -40q-41 -41 -41 -114q0 -65 39 -102q38 -36 127 -53l116 -23q155 -29 231 -117q77 -89 77 -241q0 -163 -84 -262zM270 1413z" />
    <glyph glyph-name="percent" unicode="%" horiz-adv-x="1851" 
d="M148 617q-66 77 -66 229v291q0 143 71 216q71 72 205 72q143 0 208 -71q67 -73 67 -217v-291q0 -151 -67 -229q-66 -76 -208 -76q-144 0 -210 76zM1219 1423h202l-790 -1423h-201zM412 750q10 26 10 106v254q0 81 -11 107q-12 28 -53 28t-53 -28q-12 -29 -12 -107v-254
q0 -78 11 -104q12 -29 54 -29q44 0 54 27zM1283 65q-66 77 -66 228v291q0 145 70 216q71 72 206 72q143 0 208 -71q66 -72 66 -217v-291q0 -151 -66 -228t-208 -77q-144 0 -210 77zM1546 197q10 26 10 106v254q0 81 -11 107q-12 28 -52 28q-41 0 -53 -28q-13 -31 -13 -107
v-254q0 -75 12 -104t54 -29q43 0 53 27z" />
    <glyph glyph-name="ampersand" unicode="&#x26;" horiz-adv-x="1224" 
d="M1085 219h45v-219h-98q-72 0 -115 27q-42 26 -98 100l-8 10q-77 -86 -158 -123t-186 -37q-177 0 -277 103q-98 101 -98 270q0 117 57 217q56 98 195 213q-84 117 -117 186q-32 67 -32 142q0 94 45 169t124 117q80 42 177 42q100 0 179 -43q78 -43 122 -118
q43 -74 43 -165q0 -94 -51 -176t-181 -191l178 -239l142 176l160 -141l-170 -213l38 -54q41 -53 84 -53zM463 1206q-31 -34 -31 -88q0 -39 18 -78q19 -42 74 -118q76 63 102 105q25 41 25 91q0 52 -30 87q-30 34 -78 34q-50 0 -80 -33zM582 222q43 25 100 93l-207 283
q-76 -66 -109 -121q-32 -53 -32 -108q0 -79 41 -126q40 -46 112 -46q52 0 95 25z" />
    <glyph glyph-name="quotesingle" unicode="'" horiz-adv-x="395" 
d="M78 1413h239v-610h-239v610z" />
    <glyph glyph-name="parenleft" unicode="(" horiz-adv-x="634" 
d="M92 672q0 461 266 844h185q-100 -197 -149 -411q-50 -218 -50 -433q0 -214 51 -432q50 -213 148 -412h-187q-264 392 -264 844z" />
    <glyph glyph-name="parenright" unicode=")" horiz-adv-x="634" 
d="M240 240q51 218 51 432q0 215 -50 433q-49 214 -149 411h184q267 -385 267 -844q0 -452 -264 -844h-187q98 199 148 412z" />
    <glyph glyph-name="asterisk" unicode="*" horiz-adv-x="772" 
d="M315 995l-159 -92l-64 111l164 94l-164 94l64 111l159 -90v190h142v-192l159 92l62 -111l-164 -94l166 -94l-66 -111l-157 90v-196h-142v198z" />
    <glyph glyph-name="plus" unicode="+" horiz-adv-x="1083" 
d="M426 449h-328v233h328v328h233v-328h326v-233h-326v-328h-233v328z" />
    <glyph glyph-name="comma" unicode="," horiz-adv-x="395" 
d="M78 281h239v-410l-239 -203v613z" />
    <glyph glyph-name="hyphen" unicode="-" horiz-adv-x="747" 
d="M92 825h563v-235h-563v235z" />
    <glyph glyph-name="period" unicode="." horiz-adv-x="440" 
d="M78 291h284v-291h-284v291z" />
    <glyph glyph-name="slash" unicode="/" horiz-adv-x="829" 
d="M524 1423h213l-434 -1443h-211z" />
    <glyph glyph-name="zero" unicode="0" horiz-adv-x="1048" 
d="M206 99q-104 122 -104 366v500q0 231 108 351t314 120q215 0 319 -119q103 -118 103 -352v-500q0 -243 -103 -365q-103 -123 -319 -123q-214 0 -318 122zM646 273q32 64 32 214v439q0 151 -32 213q-31 61 -122 61t-121 -61t-30 -213v-439q0 -152 31 -214t120 -62
q91 0 122 62z" />
    <glyph glyph-name="one" unicode="1" horiz-adv-x="712" 
d="M311 1116l-237 -172v291l237 178h269v-1413h-269v1116z" />
    <glyph glyph-name="two" unicode="2" horiz-adv-x="1009" 
d="M98 213l469 608q78 105 78 199v29q0 73 -40 116t-107 43q-68 0 -107 -45t-39 -125v-32h-260v49q0 110 50 196q49 85 145 135q95 50 221 50q121 0 216 -52q93 -51 143 -137q51 -88 51 -190v-35q0 -92 -33 -170q-31 -74 -97 -160l-352 -456h482v-236h-820v213z" />
    <glyph glyph-name="three" unicode="3" horiz-adv-x="1032" 
d="M202 73q-110 95 -110 269v43h250v-31q0 -74 42 -111q43 -38 122 -38q77 0 120 49q44 50 44 133v37q0 91 -47 141q-46 49 -138 49h-71v228h69q77 0 121 45q43 44 43 125v30q0 79 -40 122q-41 44 -109 44q-72 0 -111 -40t-39 -109v-35h-246v35q0 178 108 277
q109 100 298 100q186 0 293 -102q106 -102 106 -271v-31q0 -94 -43 -165t-123 -115q93 -40 141 -123q48 -84 48 -203v-39q0 -125 -53 -217t-150 -142q-99 -51 -217 -51q-197 0 -308 96z" />
    <glyph glyph-name="four" unicode="4" horiz-adv-x="1067" 
d="M995 225h-114v-225h-269v225h-540v236l403 952h268l-403 -952h272v332h269v-332h114v-236z" />
    <glyph glyph-name="five" unicode="5" horiz-adv-x="1017" 
d="M210 70q-108 92 -108 256v30h246v-12q0 -64 41 -102q40 -37 113 -37q77 0 115 50t38 146v107q0 99 -38 148t-117 49q-102 0 -146 -97h-231v805h764v-229h-533v-320q82 66 201 66q177 0 269 -106q91 -104 91 -302v-133q0 -195 -109 -303q-111 -109 -304 -109
q-182 0 -292 93z" />
    <glyph glyph-name="six" unicode="6" horiz-adv-x="1056" 
d="M208 88q-116 111 -116 307v64q0 83 24 159q25 81 68 166l324 629h283l-293 -571q43 20 102 20q166 0 265 -105q100 -106 100 -288v-66q0 -201 -120 -313q-121 -113 -317 -113q-204 0 -320 111zM651 254q45 50 45 137v64q0 88 -45 136t-123 48t-121 -48q-45 -50 -45 -134
v-68q0 -84 45 -135q43 -49 121 -49t123 49z" />
    <glyph glyph-name="seven" unicode="7" horiz-adv-x="935" 
d="M874 1413v-233l-430 -1180h-270l438 1180h-551v233h813z" />
    <glyph glyph-name="eight" unicode="8" horiz-adv-x="1075" 
d="M313 28q-96 48 -154 144q-57 94 -57 217v47q0 96 45 177q46 82 127 128q-63 37 -105 110q-40 70 -40 163v37q0 103 50 192q48 85 143 140q92 53 217 53q124 0 218 -53q93 -53 142 -140q49 -88 49 -192v-37q0 -89 -41 -162q-40 -72 -104 -111q83 -50 126 -130
q44 -82 44 -173v-47q0 -125 -57 -219q-57 -95 -155 -144q-102 -51 -224 -51t-224 51zM649 894q41 47 41 118v39q0 67 -42 112t-109 45q-68 0 -110 -45t-42 -112v-39q0 -73 41 -119q41 -45 111 -45t110 46zM667 256q48 51 48 137v49q0 82 -48 133q-49 52 -128 52
q-77 0 -127 -52t-50 -133v-49q0 -82 48 -136q46 -52 129 -52q80 0 128 51z" />
    <glyph glyph-name="nine" unicode="9" horiz-adv-x="1056" 
d="M559 571q-43 -20 -102 -20q-167 0 -266 105t-99 288v66q0 200 120 313q121 113 316 113q206 0 321 -111q116 -111 116 -307v-64q0 -81 -24 -158q-24 -78 -69 -167l-323 -629h-283zM650 822q44 49 44 134v68q0 85 -44 135q-43 49 -122 49q-77 0 -122 -49q-46 -51 -46 -137
v-64q0 -87 46 -136q45 -48 122 -48q78 0 122 48z" />
    <glyph glyph-name="colon" unicode=":" horiz-adv-x="440" 
d="M78 291h284v-291h-284v291zM78 983h284v-291h-284v291zM221 1065z" />
    <glyph glyph-name="semicolon" unicode=";" horiz-adv-x="440" 
d="M78 983h284v-291h-284v291zM119 281h239v-410l-239 -203v613zM213 1065z" />
    <glyph glyph-name="less" unicode="&#x3c;" horiz-adv-x="1083" 
d="M98 457v211l885 346v-236l-569 -217l569 -215v-237z" />
    <glyph glyph-name="equal" unicode="=" horiz-adv-x="1083" 
d="M98 895h885v-231h-885v231zM98 467h885v-231h-885v231z" />
    <glyph glyph-name="greater" unicode="&#x3e;" horiz-adv-x="1083" 
d="M98 346l570 215l-570 217v236l885 -346v-211l-885 -348v237z" />
    <glyph glyph-name="question" unicode="?" horiz-adv-x="923" 
d="M322 500q0 80 15 127q14 44 69 116l112 146q41 55 57 91q17 39 17 81q0 65 -36 103t-110 38q-73 0 -107 -40q-35 -41 -36 -122h-248q5 192 107 293q103 101 293 101q116 0 210 -48q89 -45 140 -130q49 -82 49 -187q0 -70 -25 -136q-24 -62 -79 -134l-119 -160
q-31 -41 -44 -75q-12 -32 -12 -83v-86h-253v105zM313 258h269v-258h-269v258z" />
    <glyph glyph-name="at" unicode="@" horiz-adv-x="1787" 
d="M477 -180q-181 98 -283 275t-102 409v143q0 232 102 409t283 275q183 99 418 99q230 0 414 -98q182 -97 284 -273q103 -177 103 -402v-143q0 -196 -99 -300q-99 -103 -247 -103q-93 0 -158 34q-64 34 -100 99q-66 -133 -263 -133q-309 0 -309 370v181q0 174 73 274
q71 98 222 98q74 0 130 -28q55 -27 83 -76v82h223v-584q0 -64 28 -97q27 -32 73 -32q57 0 86 50q28 49 28 163v143q0 176 -68 302q-70 129 -197 198q-129 70 -306 70q-267 0 -421 -154q-152 -152 -152 -420v-145q0 -176 68 -305q69 -131 198 -203t307 -72q120 0 221 26
q93 24 203 79l90 -174q-121 -71 -242 -103q-123 -33 -272 -33q-235 0 -418 99zM1024 487v172q0 183 -135 183q-71 0 -106 -48q-33 -46 -33 -132v-168q0 -94 32 -142q33 -49 107 -49q135 0 135 184z" />
    <glyph glyph-name="A" unicode="A" horiz-adv-x="1241" 
d="M862 274h-485l-86 -274h-283l502 1413h219l504 -1413h-285zM791 498l-173 542l-169 -542h342z" />
    <glyph glyph-name="B" unicode="B" horiz-adv-x="1224" 
d="M1072 602q50 -83 50 -196q0 -193 -114 -300q-113 -106 -320 -106h-567v1413h545q206 0 322 -102t116 -291q0 -93 -47 -173q-46 -79 -131 -120q98 -44 146 -125zM389 1180v-344h256q91 0 140 44t49 124q0 85 -49 131q-48 45 -140 45h-256zM806 284q48 50 48 140
q0 84 -48 131q-49 47 -144 47h-273v-369h273q95 0 144 51z" />
    <glyph glyph-name="C" unicode="C" 
d="M102 547v323q0 564 519 564q231 0 368 -123t137 -346v-15h-268v13q0 110 -62 172q-63 63 -178 63q-128 0 -187 -80q-58 -79 -58 -262v-305q0 -172 60 -250t190 -78q115 0 175 62q60 61 60 168v16h264v-14q0 -229 -135 -350q-134 -121 -371 -121q-514 0 -514 563z" />
    <glyph glyph-name="D" unicode="D" 
d="M121 1413h497q235 0 372 -131q136 -130 136 -430v-289q0 -299 -139 -431t-377 -132h-489v1413zM616 233q122 0 182 80q60 79 60 252v273q0 181 -59 261q-60 81 -183 81h-227v-947h227z" />
    <glyph glyph-name="E" unicode="E" horiz-adv-x="1089" 
d="M389 1180v-351h537v-233h-537v-363h629v-233h-897v1413h897v-233h-629z" />
    <glyph glyph-name="F" unicode="F" horiz-adv-x="1079" 
d="M389 1180v-363h539v-233h-539v-584h-268v1413h897v-233h-629z" />
    <glyph glyph-name="G" unicode="G" 
d="M102 547v323q0 564 519 564q231 0 368 -122t137 -337v-14h-268v14q0 98 -62 160q-63 63 -178 63q-128 0 -187 -80q-58 -79 -58 -262v-305q0 -176 62 -251q63 -77 194 -77q121 0 179 64q56 62 56 192v68h-250v221h512v-242q0 -542 -510 -542q-514 0 -514 563z" />
    <glyph glyph-name="H" unicode="H" horiz-adv-x="1247" 
d="M1126 1413v-1413h-268v598h-469v-598h-268v1413h268v-582h469v582h268z" />
    <glyph glyph-name="I" unicode="I" horiz-adv-x="534" 
d="M133 1413h268v-1413h-268v1413z" />
    <glyph glyph-name="J" unicode="J" horiz-adv-x="677" 
d="M49 236h111q64 0 89 29t25 104v1044h271v-1089q0 -156 -85 -240q-86 -84 -239 -84h-172v236z" />
    <glyph glyph-name="K" unicode="K" horiz-adv-x="1249" 
d="M575 629l-186 -234v-395h-268v1413h268v-659l490 659h321l-452 -567l489 -846h-311z" />
    <glyph glyph-name="L" unicode="L" horiz-adv-x="1056" 
d="M121 1413h268v-1180h619v-233h-887v1413z" />
    <glyph glyph-name="M" unicode="M" horiz-adv-x="1499" 
d="M1378 1413v-1413h-268v838l-268 -566h-180l-273 572v-844h-268v1413h268l363 -780l358 780h268z" />
    <glyph glyph-name="N" unicode="N" horiz-adv-x="1298" 
d="M1178 1413v-1413h-269l-520 883v-883h-268v1413h268l520 -885v885h269z" />
    <glyph glyph-name="O" unicode="O" 
d="M102 547v323q0 564 514 564q236 0 373 -132t137 -432v-323q0 -300 -140 -431q-141 -132 -378 -132q-506 0 -506 563zM799 302q59 78 59 249v305q0 181 -59 261q-60 81 -183 81q-129 0 -186 -79t-57 -263v-305q0 -175 57 -251q57 -77 186 -77q123 0 183 79z" />
    <glyph glyph-name="P" unicode="P" horiz-adv-x="1161" 
d="M988 1294q124 -118 124 -325q0 -197 -124 -315q-123 -117 -339 -117h-260v-537h-268v1413h528q214 0 339 -119zM788 823q56 51 56 146q0 102 -54 156q-55 55 -153 55h-248v-408h248q95 0 151 51z" />
    <glyph glyph-name="Q" unicode="Q" 
d="M934 72l149 -275l-204 -112l-166 305q-49 -6 -105 -6q-506 0 -506 563v323q0 564 514 564q236 0 373 -132t137 -432v-323q0 -340 -192 -475zM430 300q57 -77 186 -77q123 0 183 79q59 78 59 249v305q0 181 -59 261q-60 81 -183 81q-129 0 -186 -79t-57 -263v-305
q0 -175 57 -251z" />
    <glyph glyph-name="R" unicode="R" 
d="M590 573h-201v-573h-268v1413h536q207 0 330 -114t123 -308q0 -140 -64 -235q-65 -97 -186 -142l307 -614h-309zM389 797h254q94 0 147 50q52 49 52 144q0 85 -54 137t-145 52h-254v-383z" />
    <glyph glyph-name="S" unicode="S" horiz-adv-x="1122" 
d="M193 101q-127 113 -142 329h254q15 -117 75 -165t179 -48q227 0 227 186q0 85 -45 128q-46 45 -143 61l-133 22q-383 63 -383 394q0 197 130 311q132 115 345 115q209 0 331 -111t138 -311h-258q-6 102 -59 149t-156 47q-105 0 -158 -48t-53 -132q0 -73 47 -117
q46 -43 148 -61l149 -27q365 -66 365 -397q0 -213 -137 -326q-136 -112 -367 -112q-228 0 -354 113z" />
    <glyph glyph-name="T" unicode="T" horiz-adv-x="1015" 
d="M1004 1180h-361v-1180h-270v1180h-361v233h992v-233z" />
    <glyph glyph-name="U" unicode="U" horiz-adv-x="1257" 
d="M368 48q-116 60 -182 170q-65 108 -65 249v946h268v-938q0 -120 64 -187t174 -67t175 67q64 65 64 187v938h271v-946q0 -138 -67 -249q-66 -110 -182 -170t-261 -60q-143 0 -259 60z" />
    <glyph glyph-name="V" unicode="V" horiz-adv-x="1134" 
d="M8 1413h281l278 -977l279 977h280l-452 -1413h-215z" />
    <glyph glyph-name="W" unicode="W" horiz-adv-x="1705" 
d="M1698 1413l-338 -1413h-246l-258 1047l-256 -1047h-244l-348 1413h268l213 -997l207 997h334l217 -997l201 997h250z" />
    <glyph glyph-name="X" unicode="X" horiz-adv-x="1214" 
d="M449 735l-408 678h317l250 -459l246 459h305l-399 -668l446 -745h-319l-285 522l-289 -522h-305z" />
    <glyph glyph-name="Y" unicode="Y" horiz-adv-x="1107" 
d="M688 582v-582h-268v580l-412 833h293l252 -573l252 573h295z" />
    <glyph glyph-name="Z" unicode="Z" horiz-adv-x="1034" 
d="M979 236v-236h-918v236l609 944h-596v233h887v-233l-607 -944h625z" />
    <glyph glyph-name="bracketleft" unicode="[" horiz-adv-x="645" 
d="M121 1518h432v-236h-178v-1219h178v-235h-432v1690z" />
    <glyph glyph-name="backslash" unicode="\" horiz-adv-x="829" 
d="M92 1423h211l434 -1443h-211z" />
    <glyph glyph-name="bracketright" unicode="]" horiz-adv-x="647" 
d="M92 63h180v1213h-180v233h434v-1681h-434v235z" />
    <glyph glyph-name="asciicircum" unicode="^" horiz-adv-x="1083" 
d="M434 1423h213l348 -868h-211l-243 623l-244 -623h-211z" />
    <glyph glyph-name="underscore" unicode="_" horiz-adv-x="1024" 
d="M0 -82h1024v-166h-1024v166z" />
    <glyph glyph-name="grave" unicode="`" horiz-adv-x="1024" 
d="M260 1477h281l221 -273h-219z" />
    <glyph glyph-name="a" unicode="a" horiz-adv-x="1026" 
d="M807 982q108 -94 108 -282v-700h-245v92q-53 -56 -110 -80t-142 -24q-165 0 -254 88q-90 88 -90 243q0 144 96 227q97 83 268 83h226v84q0 170 -170 170q-72 0 -114 -36t-42 -95v-7h-236v9q0 149 107 236t287 87q202 0 311 -95zM620 239q44 47 44 140v76h-185
q-160 0 -160 -129q0 -133 156 -133q102 0 145 46z" />
    <glyph glyph-name="b" unicode="b" horiz-adv-x="1054" 
d="M358 98v-98h-247v1413h254v-457q88 121 237 121q160 0 260 -108q101 -109 101 -330v-211q0 -221 -101 -331q-100 -109 -252 -109q-163 0 -252 110zM709 436v193q0 119 -46 171t-124 52q-83 0 -129 -57q-48 -59 -48 -166v-193q0 -108 49 -166q48 -57 134 -57
q164 0 164 223z" />
    <glyph glyph-name="c" unicode="c" horiz-adv-x="1034" 
d="M208 96q-116 108 -116 338v199q0 228 116 336t316 108q197 0 307 -100q111 -101 111 -279v-20h-242v12q0 76 -46 119t-126 43q-184 0 -184 -223v-193q0 -121 48 -172t136 -51q79 0 126 41q46 40 46 115v12h242v-14q0 -176 -111 -278q-110 -101 -307 -101q-200 0 -316 108
z" />
    <glyph glyph-name="d" unicode="d" horiz-adv-x="1052" 
d="M191 97q-99 110 -99 331v211q0 223 97 330q98 108 253 108q160 0 248 -121v457h252v-1413h-248v98q-88 -110 -250 -110q-154 0 -253 109zM643 270q47 58 47 166v193q0 110 -46 166q-46 57 -128 57q-170 0 -170 -223v-193q0 -223 164 -223q86 0 133 57z" />
    <glyph glyph-name="e" unicode="e" horiz-adv-x="1058" 
d="M344 457v-29q0 -119 53 -170t152 -51q75 0 119 32q42 31 47 89l2 6h241v-10q0 -153 -112 -244q-113 -92 -307 -92q-206 0 -326 117q-121 118 -121 364v129q0 239 117 359t321 120q201 0 319 -121t118 -358v-141h-623zM392 809q-48 -51 -48 -172v-6h369v26q0 203 -183 203
q-90 0 -138 -51z" />
    <glyph glyph-name="f" unicode="f" horiz-adv-x="684" 
d="M464 1215q-26 -26 -26 -76v-74h191v-178h-191v-887h-252v887h-112v178h112v63q0 135 77 210q76 75 218 75h148v-172h-84q-55 0 -81 -26z" />
    <glyph glyph-name="g" unicode="g" horiz-adv-x="1052" 
d="M220 -254q-103 82 -113 227h243q10 -48 54 -78t116 -30q174 0 174 196v132q-88 -111 -250 -111q-154 0 -253 109t-99 331v117q0 223 97 330q98 108 253 108q160 0 248 -121v109h252v-987q0 -190 -115 -302t-317 -112q-187 0 -290 82zM643 365q47 58 47 165v99
q0 110 -46 166q-46 57 -128 57q-170 0 -170 -223v-99q0 -223 164 -223q86 0 133 58z" />
    <glyph glyph-name="h" unicode="h" horiz-adv-x="1064" 
d="M111 1413h254v-442q47 53 110 80q61 26 135 26q165 0 254 -101q90 -102 90 -282v-694h-254v664q0 92 -45 140t-120 48q-74 0 -122 -49t-48 -139v-664h-254v1413z" />
    <glyph glyph-name="i" unicode="i" horiz-adv-x="493" 
d="M121 1065h252v-1065h-252v1065zM117 1413h258v-203h-258v203z" />
    <glyph glyph-name="j" unicode="j" horiz-adv-x="493" 
d="M115 1413h258v-203h-258v203zM-68 -100h86q54 0 78 28q25 30 25 92v1045h252v-1061q0 -156 -84 -240q-83 -83 -238 -83h-119v219z" />
    <glyph glyph-name="k" unicode="k" horiz-adv-x="1064" 
d="M477 446l-112 -131v-315h-254v1413h254v-790l344 442h301l-365 -424l391 -641h-307z" />
    <glyph glyph-name="l" unicode="l" horiz-adv-x="587" 
d="M196 84q-85 84 -85 240v1089h254v-1073q0 -67 23 -93q25 -28 77 -28h86v-219h-117q-152 0 -238 84z" />
    <glyph glyph-name="m" unicode="m" horiz-adv-x="1654" 
d="M111 1065h247v-96q46 51 114 80q65 28 138 28q179 0 273 -133q123 133 301 133q170 0 265 -102q95 -103 95 -281v-694h-254v664q0 93 -46 140q-46 48 -120 48q-77 0 -124 -50q-46 -49 -46 -132v-670h-254v664q0 93 -46 140q-47 48 -119 48q-77 0 -123 -49
q-47 -50 -47 -139v-664h-254v1065z" />
    <glyph glyph-name="n" unicode="n" horiz-adv-x="1064" 
d="M111 1065h247v-96q48 54 114 81t138 27q164 0 254 -102t90 -281v-694h-254v664q0 90 -45 139t-120 49q-74 0 -122 -49t-48 -139v-664h-254v1065z" />
    <glyph glyph-name="o" unicode="o" horiz-adv-x="1044" 
d="M208 96q-116 108 -116 338v199q0 228 116 336t316 108t314 -108t114 -336v-199q0 -230 -114 -338t-314 -108t-316 108zM700 436v193q0 223 -176 223q-180 0 -180 -223v-193q0 -223 180 -223q176 0 176 223z" />
    <glyph glyph-name="p" unicode="p" horiz-adv-x="1054" 
d="M111 1065h247v-109q94 121 244 121q160 0 260 -108q101 -109 101 -330v-211q0 -221 -101 -331q-100 -109 -252 -109q-156 0 -245 108v-415h-254v1384zM709 436v193q0 119 -46 171t-124 52q-83 0 -129 -57q-48 -59 -48 -166v-193q0 -108 49 -166q48 -57 134 -57
q164 0 164 223z" />
    <glyph glyph-name="q" unicode="q" horiz-adv-x="1052" 
d="M690 96q-88 -108 -246 -108q-154 0 -253 109q-99 110 -99 331v211q0 222 99 330t260 108q153 0 243 -121v109h248v-1384h-252v415zM643 270q47 58 47 166v193q0 110 -46 166q-46 57 -128 57q-170 0 -170 -223v-193q0 -223 164 -223q86 0 133 57z" />
    <glyph glyph-name="r" unicode="r" horiz-adv-x="733" 
d="M111 1065h247v-111q39 68 105 101q64 32 147 32q44 0 86 -8v-237q-70 22 -127 22q-91 0 -148 -58q-56 -57 -56 -167v-639h-254v1065z" />
    <glyph glyph-name="s" unicode="s" horiz-adv-x="970" 
d="M184 77q-110 88 -110 238v9h237v-5q0 -59 48 -93q46 -33 126 -33q86 0 131 29q48 31 48 89q0 49 -35 76t-117 39l-113 18q-158 27 -235 99q-76 72 -76 205q0 151 112 240t285 89q120 0 210 -40q94 -42 142 -110q50 -71 50 -159v-12h-236v6q0 56 -44 86q-45 31 -122 31
q-76 0 -118 -31q-41 -30 -41 -82q0 -47 31 -74q31 -26 104 -37l125 -18q161 -23 239 -98q80 -77 80 -209q0 -164 -119 -253t-309 -89q-181 0 -293 89z" />
    <glyph glyph-name="t" unicode="t" horiz-adv-x="720" 
d="M451 887v-563q0 -109 104 -109h80v-215h-121q-144 0 -230 83q-85 82 -85 224v580h-148v178h148v209l252 88v-297h204v-178h-204z" />
    <glyph glyph-name="u" unicode="u" horiz-adv-x="1064" 
d="M111 430v635h254v-623q0 -115 33 -171q34 -58 134 -58q101 0 135 55q33 53 33 174v623h254v-635q0 -222 -104 -332t-318 -110q-421 0 -421 442z" />
    <glyph glyph-name="v" unicode="v" horiz-adv-x="985" 
d="M18 1065h269l207 -676l204 676h269l-371 -1065h-209z" />
    <glyph glyph-name="w" unicode="w" horiz-adv-x="1507" 
d="M18 1065h269l166 -676l204 676h191l205 -676l166 676h270l-313 -1065h-215l-209 690l-207 -690h-215z" />
    <glyph glyph-name="x" unicode="x" horiz-adv-x="940" 
d="M657 0l-196 336l-176 -336h-267l320 549l-301 516h266l176 -303l158 303h266l-305 -508l324 -557h-265z" />
    <glyph glyph-name="y" unicode="y" horiz-adv-x="987" 
d="M969 1065l-404 -1157q-40 -117 -118 -170q-77 -53 -203 -53h-88v227h80q61 0 91 21t48 81l4 15l-361 1036h269l209 -670l213 670h260z" />
    <glyph glyph-name="z" unicode="z" horiz-adv-x="931" 
d="M840 852l-471 -639h471v-213h-748v213l471 639h-471v213h748v-213z" />
    <glyph glyph-name="braceleft" unicode="{" horiz-adv-x="737" 
d="M313 -108q-65 64 -65 188v323q0 85 -35 125q-35 39 -121 39v217q86 0 121 39q35 40 35 125v318q0 121 65 185q67 65 189 65h143v-205h-72q-86 0 -86 -90v-285q0 -117 -31 -175t-114 -85q82 -28 114 -86q31 -56 31 -174v-293q0 -90 86 -90h72v-205h-143q-124 0 -189 64z
" />
    <glyph glyph-name="bar" unicode="|" horiz-adv-x="604" 
d="M184 1516h236v-1688h-236v1688z" />
    <glyph glyph-name="braceright" unicode="}" horiz-adv-x="737" 
d="M92 33h72q88 0 88 90v293q0 116 32 174t113 86q-82 27 -113 85q-32 59 -32 175v285q0 90 -88 90h-72v205h146q122 0 187 -65q64 -64 64 -185v-318q0 -86 36 -125t120 -39v-217q-84 0 -120 -39t-36 -125v-323q0 -124 -64 -188t-187 -64h-146v205z" />
    <glyph glyph-name="asciitilde" unicode="~" horiz-adv-x="1083" 
d="M613 417q-49 20 -99 50q-42 23 -76 38q-25 11 -55 11q-43 0 -75 -27q-31 -27 -64 -88l-164 101q51 111 125 166q77 57 168 57q54 0 96 -16q40 -15 100 -50q43 -23 74 -36t59 -13q46 0 77 27q34 30 63 88l164 -100q-46 -108 -124 -167q-77 -59 -171 -59q-54 0 -98 18z" />
    <glyph glyph-name="uni00A0" unicode="&#xa0;" horiz-adv-x="468" 
 />
    <glyph glyph-name="exclamdown" unicode="&#xa1;" horiz-adv-x="509" 
d="M119 1065h272v-268h-272v268zM160 594h190l49 -913h-288z" />
    <glyph glyph-name="cent" unicode="&#xa2;" horiz-adv-x="1120" 
d="M700 678v12q0 76 -46 119t-126 43q-184 0 -184 -223v-193q0 -121 48 -172t136 -51q79 0 126 41q46 40 46 115v12h242v-14q0 -150 -82 -247t-229 -124v-201h-121v193q-196 5 -306 112q-112 109 -112 334v199q0 223 112 332q110 107 306 112v223h121v-231q149 -27 230 -123
t81 -248v-20h-242z" />
    <glyph glyph-name="sterling" unicode="&#xa3;" horiz-adv-x="954" 
d="M383 231h520v-231h-815v221q49 22 70 66q20 41 20 125v153h-127v234h127v250q0 183 96 284t275 101q165 0 259 -88q95 -89 95 -252h-250q0 54 -26 83t-74 29q-52 0 -79 -34q-28 -36 -28 -93v-280h267v-234h-267v-127q0 -138 -63 -207z" />
    <glyph glyph-name="currency" unicode="&#xa4;" horiz-adv-x="1218" 
d="M823 287q-98 -58 -215 -58t-215 58l-133 -133l-149 149l135 135q-53 91 -53 209q0 111 55 209l-137 137l149 150l135 -135q98 55 213 55t213 -55l137 135l148 -150l-135 -137q55 -98 55 -209q0 -116 -53 -211l135 -135l-150 -149zM760 493q59 62 59 154q0 94 -59 154
q-60 61 -152 61q-89 0 -149 -61t-60 -154q0 -91 60 -154t149 -63q92 0 152 63z" />
    <glyph glyph-name="yen" unicode="&#xa5;" horiz-adv-x="1017" 
d="M375 240h-264v180h264v112h-264v181h221l-318 700h277l223 -567l215 567h275l-318 -700h221v-181h-264v-112h264v-180h-264v-240h-268v240z" />
    <glyph glyph-name="brokenbar" unicode="&#xa6;" horiz-adv-x="604" 
d="M184 1516h236v-721h-236v721zM184 553h236v-725h-236v725z" />
    <glyph glyph-name="section" unicode="&#xa7;" horiz-adv-x="1046" 
d="M244 -252q-94 91 -94 260h231q0 -143 131 -143q63 0 96 33t33 88q0 74 -46 114q-49 42 -173 76q-154 44 -227 138q-74 95 -74 249q0 106 47 189q46 81 131 127q-72 41 -102 106q-31 68 -31 154q0 92 45 167q44 73 127 117q82 43 190 43q179 0 270 -94t91 -256h-230
q0 141 -127 141q-58 0 -90 -32t-32 -88q0 -73 46 -110q49 -39 169 -73q154 -44 227 -138q74 -95 74 -249q0 -107 -49 -190q-49 -84 -132 -123q79 -46 109 -110q31 -67 31 -164q0 -141 -101 -233q-100 -91 -268 -91q-177 0 -272 92zM639 433q41 49 41 132t-41 132
q-41 48 -115 48q-75 0 -117 -47t-42 -133q0 -87 42 -133q42 -47 117 -47q74 0 115 48zM324 1448z" />
    <glyph glyph-name="dieresis" unicode="&#xa8;" horiz-adv-x="1024" 
d="M205 1440h219v-238h-219v238zM598 1440h219v-238h-219v238z" />
    <glyph glyph-name="copyright" unicode="&#xa9;" horiz-adv-x="1605" 
d="M433 72q-160 91 -245 253q-86 164 -86 375q0 214 86 378q85 163 245 252t370 89t369 -90q160 -91 245 -253q86 -164 86 -376q0 -211 -86 -375q-85 -162 -245 -253q-159 -90 -369 -90q-211 0 -370 90zM1195 290q142 149 142 410t-142 412q-143 152 -392 152t-392 -152
t-143 -412q0 -259 143 -410t392 -151t392 151zM578 382q-84 80 -84 247v143q0 166 84 246q85 80 229 80q142 0 224 -74q81 -74 81 -203v-14h-176v8q0 56 -34 87q-35 32 -91 32q-135 0 -135 -164v-139q0 -89 35 -127q34 -37 100 -37q59 0 92 30t33 85v8h176v-10
q0 -127 -82 -202t-223 -75q-146 0 -229 79z" />
    <glyph glyph-name="ordfeminine" unicode="&#xaa;" horiz-adv-x="722" 
d="M545 1474q69 -58 69 -176v-417h-176v51q-34 -32 -67 -46q-34 -14 -82 -14q-101 0 -158 57t-57 150q0 87 61 138q62 51 170 51h127v41q0 84 -90 84q-37 0 -58 -18q-22 -19 -22 -46v-4h-170v4q0 97 68 150t184 53q133 0 201 -58zM409 1044q23 22 23 70v31h-98
q-84 0 -84 -60q0 -29 20 -46t62 -17q54 0 77 22zM340 1735z" />
    <glyph glyph-name="guillemotleft" unicode="&#xab;" horiz-adv-x="1075" 
d="M37 541l463 465v-269l-195 -196l195 -197v-268zM500 541l465 465v-269l-197 -196l197 -197v-268z" />
    <glyph glyph-name="logicalnot" unicode="&#xac;" horiz-adv-x="1083" 
d="M727 520h-625v228h877v-502h-252v274z" />
    <glyph glyph-name="uni00AD" unicode="&#xad;" horiz-adv-x="747" 
d="M92 825h563v-235h-563v235z" />
    <glyph glyph-name="registered" unicode="&#xae;" horiz-adv-x="1013" 
d="M308 682q-88 51 -137 141q-50 91 -50 201q0 111 50 200t138 140q89 51 197 51q110 0 199 -51t138 -141q50 -91 50 -199q0 -110 -50 -201q-49 -90 -138 -141t-199 -51q-111 0 -198 51zM722 800q83 88 83 224q0 138 -84 223q-84 86 -215 86t-215 -86q-84 -85 -84 -223
q0 -137 84 -224t215 -87q134 0 216 87zM348 1243h180q76 0 117 -35t41 -100q0 -86 -76 -123l86 -176h-114l-76 160h-51v-160h-107v434zM522 1059q58 0 58 47t-58 47h-67v-94h67z" />
    <glyph glyph-name="macron" unicode="&#xaf;" horiz-adv-x="1024" 
d="M223 1434h578v-226h-578v226z" />
    <glyph glyph-name="degree" unicode="&#xb0;" horiz-adv-x="806" 
d="M188 920q-86 86 -86 215q0 83 39 152q38 67 109 109q68 40 153 40t153 -40q69 -40 109 -109q40 -68 40 -152q0 -86 -40 -154q-42 -71 -109 -109t-153 -38q-129 0 -215 86zM505 1029q40 41 40 106q0 64 -40 105q-41 42 -102 42q-63 0 -102 -41t-39 -106q0 -67 39 -107
q39 -41 102 -41q61 0 102 42z" />
    <glyph glyph-name="plusminus" unicode="&#xb1;" horiz-adv-x="1083" 
d="M426 575h-328v234h328v328h233v-328h326v-234h-326v-327h-233v327zM98 160h887v-234h-887v234z" />
    <glyph glyph-name="uni00B2" unicode="&#xb2;" horiz-adv-x="708" 
d="M90 1044l281 351q41 52 41 96v14q0 33 -17 53q-16 19 -47 19q-28 0 -45 -21q-16 -20 -16 -55v-18h-203v30q0 108 74 174t200 66q120 0 195 -70q74 -69 74 -167v-23q0 -57 -21 -103q-22 -48 -61 -96l-189 -231h271v-182h-537v163z" />
    <glyph glyph-name="uni00B3" unicode="&#xb3;" horiz-adv-x="698" 
d="M146 926q-70 60 -70 172v30h190v-20q0 -68 76 -68q32 0 52 22t20 60v19q0 92 -88 92h-43v174h41q37 0 56 20t19 58v16q0 76 -63 76q-68 0 -68 -64v-22h-188v20q0 115 70 179q69 63 194 63q121 0 190 -63q68 -62 68 -170v-19q0 -112 -94 -164q55 -22 81 -71
q27 -51 27 -121v-23q0 -118 -75 -186q-78 -70 -193 -70q-132 0 -202 60z" />
    <glyph glyph-name="acute" unicode="&#xb4;" horiz-adv-x="1024" 
d="M481 1477h281l-283 -273h-219z" />
    <glyph glyph-name="uni00B5" unicode="&#xb5;" horiz-adv-x="1064" 
d="M111 1065h254v-664q0 -89 45 -139q45 -49 120 -49q74 0 122 49q48 50 48 139v664h254v-1065h-247v96q-79 -108 -213 -108q-74 0 -132 32v-339h-251v1384z" />
    <glyph glyph-name="paragraph" unicode="&#xb6;" horiz-adv-x="1318" 
d="M524 518q-118 7 -210 68q-92 60 -142 158q-51 99 -51 223q0 127 56 227q58 104 161 161q104 58 248 58h551v-1732h-219v1527h-168v-1527h-226v837z" />
    <glyph glyph-name="periodcentered" unicode="&#xb7;" horiz-adv-x="440" 
d="M78 717h284v-291h-284v291z" />
    <glyph glyph-name="cedilla" unicode="&#xb8;" horiz-adv-x="1024" 
d="M461 27h201l-109 -346h-234z" />
    <glyph glyph-name="uni00B9" unicode="&#xb9;" horiz-adv-x="518" 
d="M199 1509l-140 -98v225l142 103h209v-858h-211v628z" />
    <glyph glyph-name="ordmasculine" unicode="&#xba;" horiz-adv-x="727" 
d="M162 940q-74 68 -74 205v117q0 137 74 203q75 67 203 67t201 -67t73 -203v-117q0 -137 -73 -205t-201 -68q-129 0 -203 68zM455 1145v115q0 108 -93 108q-92 0 -92 -108v-115q0 -109 92 -109q93 0 93 109zM340 1735z" />
    <glyph glyph-name="guillemotright" unicode="&#xbb;" horiz-adv-x="1075" 
d="M111 344l196 197l-196 196v269l464 -465l-464 -465v268zM575 344l195 197l-195 196v269l463 -465l-463 -465v268z" />
    <glyph glyph-name="onequarter" unicode="&#xbc;" horiz-adv-x="1646" 
d="M199 1184l-140 -99v226l142 102h209v-858h-211v629zM1595 117h-55v-117h-211v117h-332v182l236 559h211l-236 -559h121v180h211v-180h55v-182zM1020 1423h203l-791 -1423h-201z" />
    <glyph glyph-name="onehalf" unicode="&#xbd;" horiz-adv-x="1644" 
d="M199 1184l-140 -99v226l142 102h209v-858h-211v629zM1026 164l281 350q41 52 41 96v15q0 32 -17 52q-16 19 -47 19q-29 0 -45 -20t-16 -55v-19h-203v31q0 107 74 173t200 66q122 0 195 -69q74 -69 74 -168v-23q0 -56 -21 -103q-21 -46 -61 -95l-189 -232h271v-182h-537
v164zM1020 1423h203l-791 -1423h-201z" />
    <glyph glyph-name="threequarters" unicode="&#xbe;" horiz-adv-x="1826" 
d="M146 600q-70 60 -70 172v31h190v-21q0 -67 76 -67q32 0 52 21q20 22 20 61v18q0 92 -88 92h-43v174h41q36 0 56 21q19 20 19 57v17q0 75 -63 75q-68 0 -68 -63v-23h-188v21q0 114 70 178q69 63 194 63q121 0 190 -63q68 -62 68 -170v-18q0 -112 -94 -164q54 -22 81 -72
q27 -51 27 -121v-22q0 -119 -75 -187q-76 -69 -193 -69q-133 0 -202 59zM1776 117h-56v-117h-211v117h-331v182l235 559h211l-235 -559h120v180h211v-180h56v-182zM1200 1423h203l-791 -1423h-200z" />
    <glyph glyph-name="questiondown" unicode="&#xbf;" horiz-adv-x="923" 
d="M342 1065h266v-266h-266v266zM259 -294q-91 46 -140 128t-49 184q0 85 25 150q25 64 89 139l90 105q49 58 61 92q13 36 13 98v60h254v-78q0 -92 -17 -140q-18 -52 -83 -127l-96 -112q-43 -53 -58 -88q-16 -38 -16 -84q0 -67 37 -105q37 -39 108 -39q73 0 108 41
q35 40 36 123h247q-5 -193 -106 -293t-293 -100q-119 0 -210 46z" />
    <glyph glyph-name="Agrave" unicode="&#xc0;" horiz-adv-x="1241" 
d="M862 274h-485l-86 -274h-283l502 1413h219l504 -1413h-285zM791 498l-173 542l-169 -542h342zM295 1825h280l222 -273h-219z" />
    <glyph glyph-name="Aacute" unicode="&#xc1;" horiz-adv-x="1241" 
d="M862 274h-485l-86 -274h-283l502 1413h219l504 -1413h-285zM791 498l-173 542l-169 -542h342zM651 1825h281l-283 -273h-219z" />
    <glyph glyph-name="Acircumflex" unicode="&#xc2;" horiz-adv-x="1241" 
d="M862 274h-485l-86 -274h-283l502 1413h219l504 -1413h-285zM791 498l-173 542l-169 -542h342zM526 1839h187l235 -309h-198l-129 160l-129 -160h-201z" />
    <glyph glyph-name="Atilde" unicode="&#xc3;" horiz-adv-x="1241" 
d="M862 274h-485l-86 -274h-283l502 1413h219l504 -1413h-285zM791 498l-173 542l-169 -542h342zM330 1724q47 47 83 68q34 20 83 20q42 0 71 -10q32 -11 74 -33q65 -34 113 -34q42 0 71 16q34 18 84 66v-187q-45 -45 -83 -67q-36 -21 -83 -21q-40 0 -69 10q-32 11 -74 33
q-67 35 -113 35q-42 0 -71 -16q-28 -15 -86 -64v184z" />
    <glyph glyph-name="Adieresis" unicode="&#xc4;" horiz-adv-x="1241" 
d="M862 274h-485l-86 -274h-283l502 1413h219l504 -1413h-285zM791 498l-173 542l-169 -542h342zM313 1788h219v-238h-219v238zM707 1788h219v-238h-219v238z" />
    <glyph glyph-name="Aring" unicode="&#xc5;" horiz-adv-x="1241" 
d="M862 274h-485l-86 -274h-283l502 1413q-44 28 -72 76q-26 45 -26 104q0 93 60 153t151 60q90 0 150 -60q61 -61 61 -153q0 -57 -28 -107q-27 -47 -75 -77l502 -1409h-285zM555 1665q-27 -29 -27 -72q0 -39 28 -69q27 -29 67 -29q41 0 68 29q28 30 28 69q0 42 -28 72
q-27 29 -68 29t-68 -29zM791 498l-173 542l-169 -542h342zM621 1382z" />
    <glyph glyph-name="AE" unicode="&#xc6;" horiz-adv-x="1808" 
d="M1128 1180v-351h517v-233h-517v-363h609v-233h-879v289h-430l-137 -289h-283l697 1413h1032v-233h-609zM858 512v674l-321 -674h321z" />
    <glyph glyph-name="Ccedilla" unicode="&#xc7;" 
d="M858 950v13q0 110 -62 172q-63 63 -178 63q-128 0 -187 -80q-58 -79 -58 -262v-305q0 -172 60 -250t190 -78q115 0 175 62q60 61 60 168v16h264v-14q0 -193 -96 -310q-95 -116 -270 -149l-99 -315h-233l125 305q-447 39 -447 561v323q0 564 519 564q231 0 368 -123
t137 -346v-15h-268z" />
    <glyph glyph-name="Egrave" unicode="&#xc8;" horiz-adv-x="1089" 
d="M389 1180v-351h537v-233h-537v-363h629v-233h-897v1413h897v-233h-629zM223 1825h281l221 -273h-219z" />
    <glyph glyph-name="Eacute" unicode="&#xc9;" horiz-adv-x="1089" 
d="M389 1180v-351h537v-233h-537v-363h629v-233h-897v1413h897v-233h-629zM580 1825h280l-282 -273h-220z" />
    <glyph glyph-name="Ecircumflex" unicode="&#xca;" horiz-adv-x="1089" 
d="M389 1180v-351h537v-233h-537v-363h629v-233h-897v1413h897v-233h-629zM455 1839h186l236 -309h-199l-129 160l-129 -160h-201z" />
    <glyph glyph-name="Edieresis" unicode="&#xcb;" horiz-adv-x="1089" 
d="M389 1180v-351h537v-233h-537v-363h629v-233h-897v1413h897v-233h-629zM242 1788h219v-238h-219v238zM635 1788h219v-238h-219v238z" />
    <glyph glyph-name="Igrave" unicode="&#xcc;" horiz-adv-x="534" 
d="M133 1413h268v-1413h-268v1413zM-59 1825h280l221 -273h-219z" />
    <glyph glyph-name="Iacute" unicode="&#xcd;" horiz-adv-x="534" 
d="M133 1413h268v-1413h-268v1413zM297 1825h281l-283 -273h-219z" />
    <glyph glyph-name="Icircumflex" unicode="&#xce;" horiz-adv-x="534" 
d="M133 1413h268v-1413h-268v1413zM172 1839h186l236 -309h-199l-129 160l-129 -160h-200z" />
    <glyph glyph-name="Idieresis" unicode="&#xcf;" horiz-adv-x="534" 
d="M133 1413h268v-1413h-268v1413zM-41 1788h219v-238h-219v238zM352 1788h219v-238h-219v238z" />
    <glyph glyph-name="Eth" unicode="&#xd0;" horiz-adv-x="1294" 
d="M1056 1282q136 -130 136 -430v-289q0 -299 -139 -431t-377 -132h-490v602h-131v236h131v575h498q235 0 372 -131zM924 838q0 180 -60 261t-182 81h-227v-342h241v-236h-241v-369h227q121 0 181 80q61 81 61 252v273z" />
    <glyph glyph-name="Ntilde" unicode="&#xd1;" horiz-adv-x="1298" 
d="M1178 1413v-1413h-269l-520 883v-883h-268v1413h268l520 -885v885h269zM358 1724q47 47 83 68q34 20 83 20q43 0 72 -10q32 -11 74 -33q65 -34 112 -34q43 0 72 16q34 18 84 66v-187q-45 -45 -83 -67q-36 -21 -83 -21q-41 0 -70 10q-28 10 -73 33q-67 35 -113 35
q-43 0 -72 -16q-28 -15 -86 -64v184z" />
    <glyph glyph-name="Ograve" unicode="&#xd2;" 
d="M102 547v323q0 564 514 564q236 0 373 -132t137 -432v-323q0 -300 -140 -431q-141 -132 -378 -132q-506 0 -506 563zM799 302q59 78 59 249v305q0 181 -59 261q-60 81 -183 81q-129 0 -186 -79t-57 -263v-305q0 -175 57 -251q57 -77 186 -77q123 0 183 79zM289 1825h280
l222 -273h-220z" />
    <glyph glyph-name="Oacute" unicode="&#xd3;" 
d="M102 547v323q0 564 514 564q236 0 373 -132t137 -432v-323q0 -300 -140 -431q-141 -132 -378 -132q-506 0 -506 563zM799 302q59 78 59 249v305q0 181 -59 261q-60 81 -183 81q-129 0 -186 -79t-57 -263v-305q0 -175 57 -251q57 -77 186 -77q123 0 183 79zM645 1825h281
l-283 -273h-219z" />
    <glyph glyph-name="Ocircumflex" unicode="&#xd4;" 
d="M102 547v323q0 564 514 564q236 0 373 -132t137 -432v-323q0 -300 -140 -431q-141 -132 -378 -132q-506 0 -506 563zM799 302q59 78 59 249v305q0 181 -59 261q-60 81 -183 81q-129 0 -186 -79t-57 -263v-305q0 -175 57 -251q57 -77 186 -77q123 0 183 79zM520 1839h187
l235 -309h-199l-129 160l-129 -160h-200z" />
    <glyph glyph-name="Otilde" unicode="&#xd5;" 
d="M102 547v323q0 564 514 564q236 0 373 -132t137 -432v-323q0 -300 -140 -431q-141 -132 -378 -132q-506 0 -506 563zM799 302q59 78 59 249v305q0 181 -59 261q-60 81 -183 81q-129 0 -186 -79t-57 -263v-305q0 -175 57 -251q57 -77 186 -77q123 0 183 79zM324 1724
q47 47 83 68q34 20 82 20q43 0 72 -10q32 -11 74 -33q65 -34 113 -34q42 0 71 16q34 18 84 66v-187q-45 -45 -83 -67q-36 -21 -83 -21q-40 0 -69 10q-32 11 -74 33q-67 35 -113 35q-42 0 -71 -16q-28 -15 -86 -64v184z" />
    <glyph glyph-name="Odieresis" unicode="&#xd6;" 
d="M102 547v323q0 564 514 564q236 0 373 -132t137 -432v-323q0 -300 -140 -431q-141 -132 -378 -132q-506 0 -506 563zM799 302q59 78 59 249v305q0 181 -59 261q-60 81 -183 81q-129 0 -186 -79t-57 -263v-305q0 -175 57 -251q57 -77 186 -77q123 0 183 79zM307 1788h219
v-238h-219v238zM700 1788h220v-238h-220v238z" />
    <glyph glyph-name="multiply" unicode="&#xd7;" horiz-adv-x="1083" 
d="M141 322l244 243l-244 246l156 156l246 -244l243 244l156 -158l-244 -244l244 -243l-156 -158l-243 246l-246 -246z" />
    <glyph glyph-name="Oslash" unicode="&#xd8;" 
d="M1014 1272q112 -139 112 -402v-323q0 -300 -140 -431q-141 -132 -378 -132q-183 0 -301 73l-57 -98h-148l109 186q-109 138 -109 402v323q0 564 514 564q186 0 304 -76l61 106h145zM381 436l405 697q-56 65 -170 65q-129 0 -186 -79t-57 -263v-305q0 -69 8 -115zM848 987
l-408 -700q62 -64 176 -64q123 0 183 79q59 78 59 249v305q0 68 -10 131z" />
    <glyph glyph-name="Ugrave" unicode="&#xd9;" horiz-adv-x="1257" 
d="M368 48q-116 60 -182 170q-65 108 -65 249v946h268v-938q0 -120 64 -187t174 -67t175 67q64 65 64 187v938h271v-946q0 -138 -67 -249q-66 -110 -182 -170t-261 -60q-143 0 -259 60zM303 1825h281l221 -273h-219z" />
    <glyph glyph-name="Uacute" unicode="&#xda;" horiz-adv-x="1257" 
d="M368 48q-116 60 -182 170q-65 108 -65 249v946h268v-938q0 -120 64 -187t174 -67t175 67q64 65 64 187v938h271v-946q0 -138 -67 -249q-66 -110 -182 -170t-261 -60q-143 0 -259 60zM659 1825h281l-283 -273h-219z" />
    <glyph glyph-name="Ucircumflex" unicode="&#xdb;" horiz-adv-x="1257" 
d="M368 48q-116 60 -182 170q-65 108 -65 249v946h268v-938q0 -120 64 -187t174 -67t175 67q64 65 64 187v938h271v-946q0 -138 -67 -249q-66 -110 -182 -170t-261 -60q-143 0 -259 60zM535 1839h186l235 -309h-198l-129 160l-129 -160h-201z" />
    <glyph glyph-name="Udieresis" unicode="&#xdc;" horiz-adv-x="1257" 
d="M368 48q-116 60 -182 170q-65 108 -65 249v946h268v-938q0 -120 64 -187t174 -67t175 67q64 65 64 187v938h271v-946q0 -138 -67 -249q-66 -110 -182 -170t-261 -60q-143 0 -259 60zM322 1788h219v-238h-219v238zM715 1788h219v-238h-219v238z" />
    <glyph glyph-name="Yacute" unicode="&#xdd;" horiz-adv-x="1107" 
d="M688 582v-582h-268v580l-412 833h293l252 -573l252 573h295zM584 1825h280l-282 -273h-220z" />
    <glyph glyph-name="Thorn" unicode="&#xde;" horiz-adv-x="1161" 
d="M988 1061q124 -118 124 -326q0 -196 -124 -313t-339 -117h-260v-305h-268v1413h268v-233h260q214 0 339 -119zM788 590q56 51 56 145q0 103 -54 157t-153 54h-248v-407h248q95 0 151 51z" />
    <glyph glyph-name="germandbls" unicode="&#xdf;" horiz-adv-x="1073" 
d="M520 205h66q69 0 98 25q31 26 38 78q7 49 7 163q0 109 -9 162q-9 54 -44 81t-109 27h-47v211h64q67 0 97 33t30 98q0 70 -41 102t-127 32q-91 0 -135 -42q-43 -42 -43 -133v-1042h-254v1020q0 203 102 308q103 106 328 106q201 0 311 -88q111 -88 111 -250
q0 -80 -28 -141q-27 -58 -89 -99q60 -33 88 -79q29 -48 38 -117q9 -70 9 -193q0 -185 -30 -284t-109 -145t-238 -46h-84v213z" />
    <glyph glyph-name="agrave" unicode="&#xe0;" horiz-adv-x="1026" 
d="M807 982q108 -94 108 -282v-700h-245v92q-53 -56 -110 -80t-142 -24q-165 0 -254 88q-90 88 -90 243q0 144 96 227q97 83 268 83h226v84q0 170 -170 170q-72 0 -114 -36t-42 -95v-7h-236v9q0 149 107 236t287 87q202 0 311 -95zM620 239q44 47 44 140v76h-185
q-160 0 -160 -129q0 -133 156 -133q102 0 145 46zM170 1477h281l221 -273h-219z" />
    <glyph glyph-name="aacute" unicode="&#xe1;" horiz-adv-x="1026" 
d="M807 982q108 -94 108 -282v-700h-245v92q-53 -56 -110 -80t-142 -24q-165 0 -254 88q-90 88 -90 243q0 144 96 227q97 83 268 83h226v84q0 170 -170 170q-72 0 -114 -36t-42 -95v-7h-236v9q0 149 107 236t287 87q202 0 311 -95zM620 239q44 47 44 140v76h-185
q-160 0 -160 -129q0 -133 156 -133q102 0 145 46zM526 1477h281l-283 -273h-219z" />
    <glyph glyph-name="acircumflex" unicode="&#xe2;" horiz-adv-x="1026" 
d="M807 982q108 -94 108 -282v-700h-245v92q-53 -56 -110 -80t-142 -24q-165 0 -254 88q-90 88 -90 243q0 144 96 227q97 83 268 83h226v84q0 170 -170 170q-72 0 -114 -36t-42 -95v-7h-236v9q0 149 107 236t287 87q202 0 311 -95zM620 239q44 47 44 140v76h-185
q-160 0 -160 -129q0 -133 156 -133q102 0 145 46zM401 1491h187l235 -309h-198l-129 159l-129 -159h-201z" />
    <glyph glyph-name="atilde" unicode="&#xe3;" horiz-adv-x="1026" 
d="M807 982q108 -94 108 -282v-700h-245v92q-53 -56 -110 -80t-142 -24q-165 0 -254 88q-90 88 -90 243q0 144 96 227q97 83 268 83h226v84q0 170 -170 170q-72 0 -114 -36t-42 -95v-7h-236v9q0 149 107 236t287 87q202 0 311 -95zM620 239q44 47 44 140v76h-185
q-160 0 -160 -129q0 -133 156 -133q102 0 145 46zM205 1376q47 47 83 68q34 20 83 20q42 0 71 -10q32 -11 74 -33q67 -35 113 -35q40 0 71 17q36 20 84 65v-186q-47 -47 -83 -68q-34 -20 -83 -20q-40 0 -69 10q-32 11 -74 33q-67 35 -113 35q-40 0 -71 -17t-86 -63v184z" />
    <glyph glyph-name="adieresis" unicode="&#xe4;" horiz-adv-x="1026" 
d="M807 982q108 -94 108 -282v-700h-245v92q-53 -56 -110 -80t-142 -24q-165 0 -254 88q-90 88 -90 243q0 144 96 227q97 83 268 83h226v84q0 170 -170 170q-72 0 -114 -36t-42 -95v-7h-236v9q0 149 107 236t287 87q202 0 311 -95zM620 239q44 47 44 140v76h-185
q-160 0 -160 -129q0 -133 156 -133q102 0 145 46zM188 1440h220v-238h-220v238zM582 1440h219v-238h-219v238z" />
    <glyph glyph-name="aring" unicode="&#xe5;" horiz-adv-x="1026" 
d="M807 982q108 -94 108 -282v-700h-245v92q-53 -56 -110 -80t-142 -24q-165 0 -254 88q-90 88 -90 243q0 144 96 227q97 83 268 83h226v84q0 170 -170 170q-72 0 -114 -36t-42 -95v-7h-236v9q0 149 107 236t287 87q202 0 311 -95zM620 239q44 47 44 140v76h-185
q-160 0 -160 -129q0 -133 156 -133q102 0 145 46zM345 1181q-60 60 -60 150q0 93 60 153t151 60q90 0 150 -60q61 -61 61 -153q0 -89 -61 -150t-150 -61q-90 0 -151 61zM564 1262q28 30 28 69q0 42 -28 72q-27 29 -68 29t-68 -29t-27 -72q0 -39 28 -69q27 -29 67 -29
q41 0 68 29z" />
    <glyph glyph-name="ae" unicode="&#xe6;" horiz-adv-x="1628" 
d="M915 428q0 -119 53 -170q52 -51 150 -51q74 0 118 32t50 89v6h242v-10q0 -93 -46 -169q-47 -78 -136 -122q-90 -45 -220 -45q-212 0 -335 129q-59 -60 -145 -95q-84 -34 -191 -34q-174 0 -278 89q-103 88 -103 242q0 144 96 227q97 83 268 83h226v84q0 170 -170 170
q-72 0 -114 -36t-42 -95v-7h-236v9q0 149 107 236t287 87q198 0 311 -102q114 102 295 102q198 0 316 -121t118 -358v-141h-621v-29zM964 809q-49 -52 -49 -172v-6h369v26q0 203 -182 203q-90 0 -138 -51zM664 389v66h-185q-160 0 -160 -129q0 -133 156 -133q189 0 189 196z
" />
    <glyph glyph-name="ccedilla" unicode="&#xe7;" horiz-adv-x="1034" 
d="M700 678v12q0 76 -46 119t-126 43q-184 0 -184 -223v-193q0 -121 48 -172t136 -51q79 0 126 41q46 40 46 115v12h242v-14q0 -143 -75 -238q-75 -94 -210 -127l-100 -321h-233l127 311q-169 18 -264 127t-95 315v199q0 228 116 336t316 108q197 0 307 -100
q111 -101 111 -279v-20h-242z" />
    <glyph glyph-name="egrave" unicode="&#xe8;" horiz-adv-x="1058" 
d="M344 457v-29q0 -119 53 -170t152 -51q75 0 119 32q42 31 47 89l2 6h241v-10q0 -153 -112 -244q-113 -92 -307 -92q-206 0 -326 117q-121 118 -121 364v129q0 239 117 359t321 120q201 0 319 -121t118 -358v-141h-623zM392 809q-48 -51 -48 -172v-6h369v26q0 203 -183 203
q-90 0 -138 -51zM203 1477h280l222 -273h-220z" />
    <glyph glyph-name="eacute" unicode="&#xe9;" horiz-adv-x="1058" 
d="M344 457v-29q0 -119 53 -170t152 -51q75 0 119 32q42 31 47 89l2 6h241v-10q0 -153 -112 -244q-113 -92 -307 -92q-206 0 -326 117q-121 118 -121 364v129q0 239 117 359t321 120q201 0 319 -121t118 -358v-141h-623zM392 809q-48 -51 -48 -172v-6h369v26q0 203 -183 203
q-90 0 -138 -51zM559 1477h281l-283 -273h-219z" />
    <glyph glyph-name="ecircumflex" unicode="&#xea;" horiz-adv-x="1058" 
d="M344 457v-29q0 -119 53 -170t152 -51q75 0 119 32q42 31 47 89l2 6h241v-10q0 -153 -112 -244q-113 -92 -307 -92q-206 0 -326 117q-121 118 -121 364v129q0 239 117 359t321 120q201 0 319 -121t118 -358v-141h-623zM392 809q-48 -51 -48 -172v-6h369v26q0 203 -183 203
q-90 0 -138 -51zM434 1491h187l235 -309h-199l-129 159l-129 -159h-200z" />
    <glyph glyph-name="edieresis" unicode="&#xeb;" horiz-adv-x="1058" 
d="M344 457v-29q0 -119 53 -170t152 -51q75 0 119 32q42 31 47 89l2 6h241v-10q0 -153 -112 -244q-113 -92 -307 -92q-206 0 -326 117q-121 118 -121 364v129q0 239 117 359t321 120q201 0 319 -121t118 -358v-141h-623zM392 809q-48 -51 -48 -172v-6h369v26q0 203 -183 203
q-90 0 -138 -51zM221 1440h219v-238h-219v238zM614 1440h220v-238h-220v238z" />
    <glyph glyph-name="igrave" unicode="&#xec;" horiz-adv-x="493" 
d="M121 1065h252v-1065h-252v1065zM-80 1477h281l221 -273h-219z" />
    <glyph glyph-name="iacute" unicode="&#xed;" horiz-adv-x="493" 
d="M121 1065h252v-1065h-252v1065zM276 1477h281l-283 -273h-219z" />
    <glyph glyph-name="icircumflex" unicode="&#xee;" horiz-adv-x="493" 
d="M121 1065h252v-1065h-252v1065zM152 1491h186l235 -309h-198l-129 159l-129 -159h-201z" />
    <glyph glyph-name="idieresis" unicode="&#xef;" horiz-adv-x="493" 
d="M121 1065h252v-1065h-252v1065zM-61 1440h219v-238h-219v238zM332 1440h219v-238h-219v238z" />
    <glyph glyph-name="eth" unicode="&#xf0;" horiz-adv-x="1042" 
d="M898 807q52 -129 52 -277v-84q0 -226 -112 -347q-113 -122 -320 -122q-204 0 -315 120t-111 331v90q0 199 94 317q93 117 263 117q82 0 141 -28l-123 176l-211 -66l-51 162l162 49l-125 178h262l80 -112l196 61l51 -162l-145 -45l49 -69q109 -155 163 -289zM713 522
q0 226 -191 226q-194 0 -194 -222v-94q0 -233 194 -233q191 0 191 235v88z" />
    <glyph glyph-name="ntilde" unicode="&#xf1;" horiz-adv-x="1064" 
d="M111 1065h247v-96q48 54 114 81t138 27q164 0 254 -102t90 -281v-694h-254v664q0 90 -45 139t-120 49q-74 0 -122 -49t-48 -139v-664h-254v1065zM242 1376q47 47 83 68q34 20 83 20q42 0 71 -10q32 -11 74 -33q67 -35 113 -35q40 0 71 17q36 20 84 65v-186
q-47 -47 -83 -68q-34 -20 -83 -20q-40 0 -69 10q-32 11 -74 33q-67 35 -113 35q-40 0 -71 -17t-86 -63v184z" />
    <glyph glyph-name="ograve" unicode="&#xf2;" horiz-adv-x="1044" 
d="M208 96q-116 108 -116 338v199q0 228 116 336t316 108t314 -108t114 -336v-199q0 -230 -114 -338t-314 -108t-316 108zM700 436v193q0 223 -176 223q-180 0 -180 -223v-193q0 -223 180 -223q176 0 176 223zM199 1477h280l221 -273h-219z" />
    <glyph glyph-name="oacute" unicode="&#xf3;" horiz-adv-x="1044" 
d="M208 96q-116 108 -116 338v199q0 228 116 336t316 108t314 -108t114 -336v-199q0 -230 -114 -338t-314 -108t-316 108zM700 436v193q0 223 -176 223q-180 0 -180 -223v-193q0 -223 180 -223q176 0 176 223zM555 1477h281l-283 -273h-219z" />
    <glyph glyph-name="ocircumflex" unicode="&#xf4;" horiz-adv-x="1044" 
d="M208 96q-116 108 -116 338v199q0 228 116 336t316 108t314 -108t114 -336v-199q0 -230 -114 -338t-314 -108t-316 108zM700 436v193q0 223 -176 223q-180 0 -180 -223v-193q0 -223 180 -223q176 0 176 223zM430 1491h186l236 -309h-199l-129 159l-129 -159h-200z" />
    <glyph glyph-name="otilde" unicode="&#xf5;" horiz-adv-x="1044" 
d="M208 96q-116 108 -116 338v199q0 228 116 336t316 108t314 -108t114 -336v-199q0 -230 -114 -338t-314 -108t-316 108zM700 436v193q0 223 -176 223q-180 0 -180 -223v-193q0 -223 180 -223q176 0 176 223zM233 1376q47 47 83 68q34 20 83 20q43 0 72 -10q32 -11 74 -33
q67 -35 112 -35q41 0 72 17q36 20 84 65v-186q-47 -47 -83 -68q-34 -20 -83 -20q-40 0 -69 10q-32 11 -74 33q-67 35 -113 35q-41 0 -72 -17t-86 -63v184z" />
    <glyph glyph-name="odieresis" unicode="&#xf6;" horiz-adv-x="1044" 
d="M208 96q-116 108 -116 338v199q0 228 116 336t316 108t314 -108t114 -336v-199q0 -230 -114 -338t-314 -108t-316 108zM700 436v193q0 223 -176 223q-180 0 -180 -223v-193q0 -223 180 -223q176 0 176 223zM217 1440h219v-238h-219v238zM610 1440h219v-238h-219v238z" />
    <glyph glyph-name="divide" unicode="&#xf7;" horiz-adv-x="1083" 
d="M444 810q-38 39 -38 97q0 59 38 98t97 39q58 0 97 -39q40 -40 40 -98q0 -57 -40 -97t-97 -40q-58 0 -97 40zM98 682h887v-233h-887v233zM444 128q-38 39 -38 97q0 59 38 98t97 39q58 0 97 -39q40 -40 40 -98q0 -57 -39 -97t-98 -40q-58 0 -97 40z" />
    <glyph glyph-name="oslash" unicode="&#xf8;" horiz-adv-x="1044" 
d="M850 954q102 -112 102 -321v-199q0 -230 -114 -338t-314 -108q-141 0 -241 53l-64 -100h-127l105 168q-105 114 -105 325v199q0 228 116 336t316 108q142 0 242 -55l59 96h127zM350 356l287 459q-43 37 -113 37q-180 0 -180 -223v-193q0 -45 6 -80zM694 705l-284 -457
q44 -35 114 -35q176 0 176 223v193q0 43 -6 76z" />
    <glyph glyph-name="ugrave" unicode="&#xf9;" horiz-adv-x="1064" 
d="M111 430v635h254v-623q0 -115 33 -171q34 -58 134 -58q101 0 135 55q33 53 33 174v623h254v-635q0 -222 -104 -332t-318 -110q-421 0 -421 442zM207 1477h280l222 -273h-220z" />
    <glyph glyph-name="uacute" unicode="&#xfa;" horiz-adv-x="1064" 
d="M111 430v635h254v-623q0 -115 33 -171q34 -58 134 -58q101 0 135 55q33 53 33 174v623h254v-635q0 -222 -104 -332t-318 -110q-421 0 -421 442zM563 1477h281l-283 -273h-219z" />
    <glyph glyph-name="ucircumflex" unicode="&#xfb;" horiz-adv-x="1064" 
d="M111 430v635h254v-623q0 -115 33 -171q34 -58 134 -58q101 0 135 55q33 53 33 174v623h254v-635q0 -222 -104 -332t-318 -110q-421 0 -421 442zM438 1491h187l235 -309h-198l-130 159l-129 -159h-200z" />
    <glyph glyph-name="udieresis" unicode="&#xfc;" horiz-adv-x="1064" 
d="M111 430v635h254v-623q0 -115 33 -171q34 -58 134 -58q101 0 135 55q33 53 33 174v623h254v-635q0 -222 -104 -332t-318 -110q-421 0 -421 442zM225 1440h219v-238h-219v238zM618 1440h220v-238h-220v238z" />
    <glyph glyph-name="yacute" unicode="&#xfd;" horiz-adv-x="987" 
d="M969 1065l-404 -1157q-40 -117 -118 -170q-77 -53 -203 -53h-88v227h80q61 0 91 21t48 81l4 15l-361 1036h269l209 -670l213 670h260zM524 1477h281l-283 -273h-219z" />
    <glyph glyph-name="thorn" unicode="&#xfe;" horiz-adv-x="1054" 
d="M111 1413h254v-457q88 121 237 121q160 0 260 -108q101 -109 101 -330v-211q0 -221 -101 -331q-100 -109 -252 -109q-163 0 -252 110v-417h-247v1732zM709 436v193q0 119 -46 171t-124 52q-83 0 -129 -57q-48 -59 -48 -166v-193q0 -108 49 -166q48 -57 134 -57
q164 0 164 223z" />
    <glyph glyph-name="ydieresis" unicode="&#xff;" horiz-adv-x="987" 
d="M969 1065l-404 -1157q-40 -117 -118 -170q-77 -53 -203 -53h-88v227h80q61 0 91 21t48 81l4 15l-361 1036h269l209 -670l213 670h260zM186 1440h220v-238h-220v238zM580 1440h219v-238h-219v238z" />
    <glyph glyph-name="dotlessi" unicode="&#x131;" horiz-adv-x="493" 
d="M121 1065h252v-1065h-252v1065z" />
    <glyph glyph-name="OE" unicode="&#x152;" horiz-adv-x="1783" 
d="M1126 1180v-351h494v-233h-494v-363h586v-233h-833v63q-122 -79 -289 -79q-221 0 -354 133q-134 134 -134 430v323q0 295 137 429q138 135 353 135q165 0 287 -82v61h833v-233h-586zM858 856q0 181 -59 261q-60 81 -183 81q-129 0 -186 -79t-57 -263v-305q0 -175 57 -251
q57 -77 186 -77q123 0 183 79q59 78 59 249v305z" />
    <glyph glyph-name="oe" unicode="&#x153;" horiz-adv-x="1665" 
d="M952 428q0 -119 53 -170t150 -51q74 0 118 32t50 89v6h242v-10q0 -152 -112 -244t-308 -92q-200 0 -311 104q-110 -104 -310 -104t-316 108t-116 338v199q0 228 116 336t316 108t310 -104q113 104 305 104q198 0 316 -121t118 -358v-141h-621v-29zM952 631h369v26
q0 203 -182 203q-91 0 -139 -51t-48 -172v-6zM700 629q0 223 -176 223q-180 0 -180 -223v-193q0 -223 180 -223q176 0 176 223v193z" />
    <glyph glyph-name="Scaron" unicode="&#x160;" horiz-adv-x="1122" 
d="M193 101q-127 113 -142 329h254q15 -117 75 -165t179 -48q227 0 227 186q0 85 -45 128q-46 45 -143 61l-133 22q-383 63 -383 394q0 197 130 311q132 115 345 115q209 0 331 -111t138 -311h-258q-6 102 -59 149t-156 47q-105 0 -158 -48t-53 -132q0 -73 47 -117
q46 -43 148 -61l149 -27q365 -66 365 -397q0 -213 -137 -326q-136 -112 -367 -112q-228 0 -354 113zM227 1825h201l129 -160l129 160h199l-236 -309h-186z" />
    <glyph glyph-name="scaron" unicode="&#x161;" horiz-adv-x="970" 
d="M184 77q-110 88 -110 238v9h237v-5q0 -59 48 -93q46 -33 126 -33q86 0 131 29q48 31 48 89q0 49 -35 76t-117 39l-113 18q-158 27 -235 99q-76 72 -76 205q0 151 112 240t285 89q120 0 210 -40q94 -42 142 -110q50 -71 50 -159v-12h-236v6q0 56 -44 86q-45 31 -122 31
q-76 0 -118 -31q-41 -30 -41 -82q0 -47 31 -74q31 -26 104 -37l125 -18q161 -23 239 -98q80 -77 80 -209q0 -164 -119 -253t-309 -89q-181 0 -293 89zM156 1477h200l129 -160l129 160h199l-235 -310h-187z" />
    <glyph glyph-name="Ydieresis" unicode="&#x178;" horiz-adv-x="1107" 
d="M688 582v-582h-268v580l-412 833h293l252 -573l252 573h295zM246 1788h219v-238h-219v238zM639 1788h219v-238h-219v238z" />
    <glyph glyph-name="Zcaron" unicode="&#x17d;" horiz-adv-x="1034" 
d="M979 236v-236h-918v236l609 944h-596v233h887v-233l-607 -944h625zM186 1825h201l129 -160l129 160h199l-236 -309h-186z" />
    <glyph glyph-name="zcaron" unicode="&#x17e;" horiz-adv-x="931" 
d="M840 852l-471 -639h471v-213h-748v213l471 639h-471v213h748v-213zM135 1477h201l129 -160l129 160h199l-236 -310h-186z" />
    <glyph glyph-name="florin" unicode="&#x192;" horiz-adv-x="858" 
d="M18 -80h60q70 0 101 27q32 28 44 102l88 592h-159v225h192l33 215q27 175 110 253q83 79 248 79h105v-233h-70q-62 0 -97 -29q-33 -28 -44 -96l-29 -189h205v-225h-238l-94 -623q-28 -181 -112 -260q-81 -77 -250 -77h-93v239z" />
    <glyph glyph-name="circumflex" unicode="&#x2c6;" horiz-adv-x="1024" 
d="M418 1491h186l236 -309h-199l-129 159l-129 -159h-201z" />
    <glyph glyph-name="caron" unicode="&#x2c7;" horiz-adv-x="1024" 
d="M182 1477h201l129 -160l129 160h199l-236 -310h-186z" />
    <glyph glyph-name="dotaccent" unicode="&#x2d9;" horiz-adv-x="1024" 
d="M383 1423h258v-202h-258v202z" />
    <glyph glyph-name="ring" unicode="&#x2da;" horiz-adv-x="1024" 
d="M357 1242q-60 60 -60 151q0 92 60 152q61 61 151 61q89 0 150 -61t61 -152q0 -90 -61 -151q-60 -60 -150 -60q-91 0 -151 60zM577 1323q27 29 27 70q0 43 -27 71q-27 29 -69 29q-41 0 -68 -29q-26 -27 -26 -71q0 -41 27 -70t67 -29q42 0 69 29z" />
    <glyph glyph-name="tilde" unicode="&#x2dc;" horiz-adv-x="1024" 
d="M221 1376q47 47 83 68q34 20 83 20q43 0 72 -10q28 -10 73 -33q67 -35 113 -35q41 0 72 17q36 20 84 65v-186q-47 -47 -83 -68q-34 -20 -83 -20q-41 0 -70 10q-28 10 -73 33q-67 35 -113 35q-41 0 -72 -17t-86 -63v184z" />
    <glyph glyph-name="gravecomb" unicode="&#x300;" horiz-adv-x="0" 
d="M-326 1477h281l221 -273h-219z" />
    <glyph glyph-name="acutecomb" unicode="&#x301;" horiz-adv-x="0" 
d="M31 1477h280l-282 -273h-219z" />
    <glyph glyph-name="uni0302" unicode="&#x302;" horiz-adv-x="0" 
d="M-94 1491h186l236 -309h-199l-129 159l-129 -159h-201z" />
    <glyph glyph-name="tildecomb" unicode="&#x303;" horiz-adv-x="0" 
d="M-291 1376q47 47 83 68q34 20 83 20q43 0 72 -10q28 -10 73 -33q67 -35 113 -35q41 0 72 17q36 20 84 65v-186q-47 -47 -83 -68q-34 -20 -83 -20q-41 0 -70 10q-28 10 -73 33q-67 35 -113 35q-41 0 -72 -17t-86 -63v184z" />
    <glyph glyph-name="uni0308" unicode="&#x308;" horiz-adv-x="0" 
d="M-307 1440h219v-238h-219v238zM86 1440h219v-238h-219v238z" />
    <glyph glyph-name="uni030A" unicode="&#x30a;" horiz-adv-x="0" 
d="M-151 1242q-60 60 -60 151q0 92 60 152q61 61 151 61t151 -61q60 -60 60 -152q0 -91 -60 -151t-151 -60t-151 60zM69 1323q27 29 27 70q0 43 -27 71q-27 29 -69 29q-41 0 -68 -29q-26 -27 -26 -71q0 -41 27 -70t67 -29q42 0 69 29z" />
    <glyph glyph-name="endash" unicode="&#x2013;" horiz-adv-x="854" 
d="M0 825h854v-235h-854v235z" />
    <glyph glyph-name="emdash" unicode="&#x2014;" horiz-adv-x="1705" 
d="M0 825h1706v-235h-1706v235z" />
    <glyph glyph-name="quoteleft" unicode="&#x2018;" horiz-adv-x="395" 
d="M317 887h-239v409l239 203v-612zM172 1413z" />
    <glyph glyph-name="quoteright" unicode="&#x2019;" horiz-adv-x="395" 
d="M78 1413h239v-409l-239 -203v612z" />
    <glyph glyph-name="quotesinglbase" unicode="&#x201a;" horiz-adv-x="395" 
d="M78 281h239v-410l-239 -203v613z" />
    <glyph glyph-name="quotedblleft" unicode="&#x201c;" horiz-adv-x="784" 
d="M317 887h-239v409l239 203v-612zM707 887h-240v409l240 203v-612zM412 1413z" />
    <glyph glyph-name="quotedblright" unicode="&#x201d;" horiz-adv-x="784" 
d="M78 1413h239v-409l-239 -203v612zM467 1413h240v-409l-240 -203v612z" />
    <glyph glyph-name="quotedblbase" unicode="&#x201e;" horiz-adv-x="782" 
d="M465 281h240v-410l-240 -203v613zM78 281h239v-410l-239 -203v613z" />
    <glyph glyph-name="dagger" unicode="&#x2020;" horiz-adv-x="1116" 
d="M1006 737h-312v-1056h-268v1056h-315v234h315v442h268v-442h312v-234z" />
    <glyph glyph-name="daggerdbl" unicode="&#x2021;" horiz-adv-x="1116" 
d="M694 752v-400h312v-235h-312v-436h-268v436h-315v235h315v400h-315v235h315v426h268v-426h312v-235h-312z" />
    <glyph glyph-name="bullet" unicode="&#x2022;" horiz-adv-x="927" 
d="M250 416q-84 84 -84 215t84 215t215 84q129 0 213 -84t84 -215t-84 -215t-213 -84q-131 0 -215 84z" />
    <glyph glyph-name="ellipsis" unicode="&#x2026;" horiz-adv-x="1583" 
d="M78 291h284v-291h-284v291zM1221 291h284v-291h-284v291zM649 291h285v-291h-285v291z" />
    <glyph glyph-name="perthousand" unicode="&#x2030;" horiz-adv-x="2568" 
d="M148 617q-66 77 -66 229v291q0 143 71 216q71 72 205 72q143 0 208 -71q67 -73 67 -217v-291q0 -151 -67 -229q-66 -76 -208 -76q-144 0 -210 76zM1219 1423h202l-790 -1423h-201zM412 750q10 26 10 106v254q0 81 -11 107q-12 28 -53 28t-53 -28q-12 -29 -12 -107v-254
q0 -78 11 -104q12 -29 54 -29q44 0 54 27zM1283 65q-66 77 -66 228v291q0 145 70 216q71 72 206 72q143 0 208 -71q66 -72 66 -217v-291q0 -151 -66 -228t-208 -77q-144 0 -210 77zM2000 65q-67 78 -67 228v291q0 143 71 216q70 72 206 72q143 0 208 -71q66 -72 66 -217
v-291q0 -151 -66 -228t-208 -77q-144 0 -210 77zM1546 197q10 26 10 106v254q0 81 -11 107q-12 28 -52 28q-41 0 -53 -28q-13 -31 -13 -107v-254q0 -75 12 -104t54 -29q43 0 53 27zM2263 197q10 26 10 106v254q0 81 -11 107q-12 28 -52 28q-41 0 -53 -28q-13 -31 -13 -107
v-254q0 -75 12 -104t54 -29t53 27z" />
    <glyph glyph-name="guilsinglleft" unicode="&#x2039;" horiz-adv-x="610" 
d="M37 541l463 465v-269l-195 -196l195 -197v-268z" />
    <glyph glyph-name="guilsinglright" unicode="&#x203a;" horiz-adv-x="630" 
d="M111 344l196 197l-196 196v269l464 -465l-464 -465v268z" />
    <glyph glyph-name="Euro" unicode="&#x20ac;" horiz-adv-x="1124" 
d="M279 103q-113 127 -113 346v45h-111v165h111v103h-111v166h111v49q0 211 114 334t324 123q181 0 293 -98q111 -98 123 -269h-229q-29 150 -183 150q-192 0 -192 -242v-47h395l-29 -166h-366v-103h352l-29 -165h-323v-48q0 -118 47 -185q47 -66 147 -66q80 0 126 37
q46 38 63 114h223q-16 -182 -130 -275q-115 -94 -290 -94q-210 0 -323 126z" />
    <glyph glyph-name="trademark" unicode="&#x2122;" horiz-adv-x="1658" 
d="M279 1247h-218v166h621v-166h-217v-641h-186v641zM797 1413h172l198 -465h7l194 465h170v-807h-172v422h-6l-129 -305h-125l-131 305h-4v-422h-174v807z" />
    <glyph glyph-name="NULL" 
 />
    <glyph glyph-name="t_t" horiz-adv-x="1378" 
d="M1108 887v-563q0 -109 104 -109h80v-215h-121q-144 0 -230 83q-85 82 -85 224v580h-405v-563q0 -109 104 -109h80v-215h-121q-144 0 -230 83q-85 82 -85 224v580h-148v178h148v209l252 88v-297h405v209l252 88v-297h205v-178h-205z" />
    <glyph glyph-name="zero.dnom" horiz-adv-x="716" 
d="M148 62q-66 76 -66 229v291q0 143 71 216q71 72 205 72q143 0 208 -71q67 -73 67 -217v-291q0 -151 -67 -229q-66 -76 -208 -76q-144 0 -210 76zM412 195q10 26 10 106v254q0 80 -11 106q-12 29 -53 29t-53 -29t-12 -106v-254q0 -78 11 -104q12 -29 54 -29q44 0 54 27z
" />
    <glyph glyph-name="one.dnom" horiz-adv-x="518" 
d="M199 629l-140 -99v226l142 102h209v-858h-211v629z" />
    <glyph glyph-name="two.dnom" horiz-adv-x="708" 
d="M90 164l281 350q41 52 41 96v15q0 32 -17 52q-16 19 -47 19q-29 0 -45 -20t-16 -55v-19h-203v31q0 107 74 173t200 66q122 0 195 -69q74 -69 74 -168v-23q0 -56 -21 -103q-21 -46 -61 -95l-189 -232h271v-182h-537v164z" />
    <glyph glyph-name="three.dnom" horiz-adv-x="698" 
d="M146 45q-70 60 -70 172v31h190v-21q0 -67 76 -67q32 0 52 21q20 22 20 61v18q0 92 -88 92h-43v174h41q36 0 56 21q19 20 19 57v17q0 75 -63 75q-68 0 -68 -63v-23h-188v21q0 114 70 178q69 63 194 63q121 0 190 -63q68 -62 68 -170v-18q0 -112 -94 -164q54 -22 81 -72
q27 -51 27 -121v-22q0 -119 -75 -187q-76 -69 -193 -69q-133 0 -202 59z" />
    <glyph glyph-name="four.dnom" horiz-adv-x="710" 
d="M659 117h-55v-117h-211v117h-332v182l236 559h211l-236 -559h121v180h211v-180h55v-182z" />
    <glyph glyph-name="zero.numr" horiz-adv-x="716" 
d="M148 617q-66 77 -66 229v291q0 143 71 216q71 72 205 72q143 0 208 -71q67 -73 67 -217v-291q0 -151 -67 -229q-66 -76 -208 -76q-144 0 -210 76zM412 750q10 26 10 106v254q0 81 -11 107q-12 28 -53 28t-53 -28q-12 -29 -12 -107v-254q0 -78 11 -104q12 -29 54 -29
q44 0 54 27z" />
    <glyph glyph-name="one.numr" horiz-adv-x="518" 
d="M199 1184l-140 -99v226l142 102h209v-858h-211v629z" />
    <glyph glyph-name="two.numr" horiz-adv-x="708" 
d="M90 719l281 350q41 52 41 96v15q0 32 -17 52q-16 19 -47 19q-29 0 -45 -20t-16 -55v-19h-203v31q0 107 74 173t200 66q122 0 195 -69q74 -69 74 -168v-23q0 -57 -21 -103t-61 -95l-189 -232h271v-182h-537v164z" />
    <glyph glyph-name="three.numr" horiz-adv-x="698" 
d="M146 600q-70 60 -70 172v31h190v-21q0 -67 76 -67q32 0 52 21q20 22 20 61v18q0 92 -88 92h-43v174h41q36 0 56 21q19 20 19 57v17q0 75 -63 75q-68 0 -68 -63v-23h-188v21q0 114 70 178q69 63 194 63q121 0 190 -63q68 -62 68 -170v-18q0 -112 -94 -164q54 -22 81 -72
q27 -51 27 -121v-22q0 -119 -75 -187q-76 -69 -193 -69q-133 0 -202 59z" />
    <glyph glyph-name="four.numr" horiz-adv-x="710" 
d="M659 672h-55v-117h-211v117h-332v182l236 559h211l-236 -559h121v180h211v-180h55v-182z" />
    <glyph glyph-name="zero.sups" horiz-adv-x="716" 
d="M148 943q-66 77 -66 228v291q0 143 71 216t205 73q142 0 208 -72q67 -73 67 -217v-291q0 -150 -67 -228q-66 -77 -208 -77q-144 0 -210 77zM412 1075q10 26 10 107v254q0 80 -11 106q-12 29 -53 29t-53 -29q-12 -28 -12 -106v-254q0 -79 11 -105q12 -28 54 -28
q44 0 54 26z" />
    <glyph glyph-name="one.sups" horiz-adv-x="518" 
d="M199 1509l-140 -98v225l142 103h209v-858h-211v628z" />
    <glyph glyph-name="two.sups" horiz-adv-x="708" 
d="M90 1044l281 351q41 52 41 96v14q0 33 -17 53q-16 19 -47 19q-28 0 -45 -21q-16 -20 -16 -55v-18h-203v30q0 108 74 174t200 66q120 0 195 -70q74 -69 74 -167v-23q0 -57 -21 -103q-22 -48 -61 -96l-189 -231h271v-182h-537v163z" />
    <glyph glyph-name="three.sups" horiz-adv-x="698" 
d="M146 926q-70 60 -70 172v30h190v-20q0 -68 76 -68q32 0 52 22t20 60v19q0 92 -88 92h-43v174h41q37 0 56 20t19 58v16q0 76 -63 76q-68 0 -68 -64v-22h-188v20q0 115 70 179q69 63 194 63q121 0 190 -63q68 -62 68 -170v-19q0 -112 -94 -164q55 -22 81 -71
q27 -51 27 -121v-23q0 -118 -75 -186q-78 -70 -193 -70q-132 0 -202 60z" />
    <glyph glyph-name="four.sups" horiz-adv-x="710" 
d="M659 997h-55v-116h-211v116h-332v183l236 559h211l-236 -559h121v180h211v-180h55v-183z" />
    <glyph glyph-name="glyph249" horiz-adv-x="417" 
d="M512 1423h203l-791 -1423h-200z" />
    </font>
</defs>
</svg>
