<?xml version="1.0" encoding="utf-8"?>
<!-- Generator: Adobe Illustrator 25.1.0, SVG Export Plug-In . SVG Version: 6.00 Build 0)  -->
<svg version="1.1" id="Modo_de_aislamiento" xmlns="http://www.w3.org/2000/svg" xmlns:xlink="http://www.w3.org/1999/xlink"
	 x="0px" y="0px" viewBox="0 0 132.4 51.4" style="enable-background:new 0 0 132.4 51.4;" xml:space="preserve">
<style type="text/css">
	.st0{fill:url(#SVGID_1_);}
	.st1{fill:url(#SVGID_2_);}
	.st2{fill:url(#SVGID_3_);}
	.st3{fill:url(#SVGID_4_);}
	.st4{fill:url(#SVGID_5_);}
	.st5{fill:url(#SVGID_6_);}
	.st6{fill:url(#SVGID_7_);}
	.st7{fill:url(#SVGID_8_);}
	.st8{fill:url(#SVGID_9_);}
	.st9{fill:url(#SVGID_10_);}
	.st10{fill:url(#SVGID_11_);}
	.st11{fill:url(#SVGID_12_);}
	.st12{fill:url(#SVGID_13_);}
	.st13{fill:url(#SVGID_14_);}
	.st14{fill:url(#SVGID_15_);}
	.st15{fill:url(#SVGID_16_);}
	.st16{fill:url(#SVGID_17_);}
	.st17{fill:url(#SVGID_18_);}
	.st18{fill:url(#SVGID_19_);}
	.st19{fill:#BBBBB6;}
</style>
<g>
	<linearGradient id="SVGID_1_" gradientUnits="userSpaceOnUse" x1="30.1357" y1="19.3524" x2="34.0097" y2="26.7482">
		<stop  offset="0" style="stop-color:#D03727"/>
		<stop  offset="1" style="stop-color:#CF2E26"/>
	</linearGradient>
	<path class="st0" d="M31.2,27h5.3c-0.6-3.7-2.4-7-5-9.5l-3.7,3.7C29.5,22.8,30.6,24.8,31.2,27z"/>
	<linearGradient id="SVGID_2_" gradientUnits="userSpaceOnUse" x1="19.4388" y1="14.5002" x2="29.8533" y2="18.978">
		<stop  offset="0" style="stop-color:#D13927"/>
		<stop  offset="1" style="stop-color:#D03727"/>
	</linearGradient>
	<path class="st1" d="M19.2,17.8c3.4,0,6.5,1.4,8.7,3.6l3.7-3.7c-3.2-3.2-7.6-5.1-12.4-5.1c-0.1,0-0.1,0-0.2,0l0,5.2
		C19.2,17.8,19.2,17.8,19.2,17.8z"/>
	<linearGradient id="SVGID_3_" gradientUnits="userSpaceOnUse" x1="19.0142" y1="14.383" x2="8.6501" y2="19.1626">
		<stop  offset="0" style="stop-color:#D13927"/>
		<stop  offset="1" style="stop-color:#D23F28"/>
	</linearGradient>
	<path class="st2" d="M19.2,17.8v-5.2c-4.9,0-9.3,2-12.5,5.2l3.7,3.7C12.7,19.2,15.8,17.8,19.2,17.8z"/>
	<linearGradient id="SVGID_4_" gradientUnits="userSpaceOnUse" x1="8.1171" y1="19.4151" x2="3.7904" y2="29.6283">
		<stop  offset="0" style="stop-color:#D23F28"/>
		<stop  offset="1" style="stop-color:#D44E2C"/>
	</linearGradient>
	<path class="st3" d="M6.9,30.1c0-3.4,1.4-6.5,3.6-8.7l-3.7-3.7c-3.2,3.2-5.1,7.5-5.1,12.4c0,0.1,0,0.1,0,0.2l5.2,0
		C7,30.1,6.9,30.1,6.9,30.1z"/>
	<linearGradient id="SVGID_5_" gradientUnits="userSpaceOnUse" x1="3.7101" y1="30.3534" x2="8.2381" y2="41.12">
		<stop  offset="0" style="stop-color:#D44E2C"/>
		<stop  offset="1" style="stop-color:#D5522D"/>
	</linearGradient>
	<path class="st4" d="M6.9,30.1H1.7c0,4.9,2,9.3,5.2,12.5l3.7-3.7C8.4,36.6,6.9,33.5,6.9,30.1z"/>
	<linearGradient id="SVGID_6_" gradientUnits="userSpaceOnUse" x1="8.4953" y1="41.3072" x2="18.9601" y2="45.4327">
		<stop  offset="0" style="stop-color:#D5522D"/>
		<stop  offset="1" style="stop-color:#D75F33"/>
	</linearGradient>
	<path class="st5" d="M19.2,42.4c-3.4,0-6.5-1.4-8.7-3.6l-3.7,3.7c3.2,3.2,7.5,5.1,12.4,5.1c0.1,0,0.1,0,0.2,0l0-5.2
		C19.3,42.4,19.3,42.4,19.2,42.4z"/>
	<g>
		<linearGradient id="SVGID_7_" gradientUnits="userSpaceOnUse" x1="19.8682" y1="48.0079" x2="29.3895" y2="38.4156">
			<stop  offset="0.27" style="stop-color:#D75F33"/>
			<stop  offset="1" style="stop-color:#D75C31;stop-opacity:0"/>
		</linearGradient>
		<path class="st6" d="M29,37.6c-2.2,2.9-5.8,4.8-9.7,4.8v5.2c5.7,0,10.7-2.7,13.9-6.9L29,37.6z"/>
	</g>
	<linearGradient id="SVGID_8_" gradientUnits="userSpaceOnUse" x1="109.9526" y1="25.5575" x2="106.6726" y2="19.9199">
		<stop  offset="0" style="stop-color:#006EB3"/>
		<stop  offset="1" style="stop-color:#0076B9"/>
	</linearGradient>
	<path class="st7" d="M107.5,27h5.3c-0.6-3.7-2.4-7-5-9.5l-3.7,3.7C105.8,22.8,107,24.8,107.5,27z"/>
	<linearGradient id="SVGID_9_" gradientUnits="userSpaceOnUse" x1="105.3582" y1="18.5123" x2="96.6798" y2="14.9248">
		<stop  offset="0" style="stop-color:#0076B9"/>
		<stop  offset="1" style="stop-color:#0083C3"/>
	</linearGradient>
	<path class="st8" d="M95.6,17.8c3.4,0,6.5,1.4,8.7,3.6l3.7-3.7c-3.2-3.2-7.6-5.1-12.4-5.1c-0.1,0-0.1,0-0.2,0l0,5.2
		C95.5,17.8,95.5,17.8,95.6,17.8z"/>
	<linearGradient id="SVGID_10_" gradientUnits="userSpaceOnUse" x1="85.5892" y1="18.6586" x2="94.3359" y2="14.9344">
		<stop  offset="0" style="stop-color:#1E8EC9"/>
		<stop  offset="1" style="stop-color:#0083C3"/>
	</linearGradient>
	<path class="st9" d="M95.6,17.8v-5.2c-4.9,0-9.3,2-12.5,5.2l3.7,3.7C89,19.2,92.1,17.8,95.6,17.8z"/>
	<linearGradient id="SVGID_11_" gradientUnits="userSpaceOnUse" x1="80.4753" y1="28.8499" x2="84.0628" y2="20.2398">
		<stop  offset="0" style="stop-color:#359AD1"/>
		<stop  offset="1" style="stop-color:#1E8EC9"/>
	</linearGradient>
	<path class="st10" d="M83.3,30.1c0-3.4,1.4-6.5,3.6-8.7l-3.7-3.7c-3.2,3.2-5.1,7.5-5.1,12.4c0,0.1,0,0.1,0,0.2l5.2,0
		C83.3,30.1,83.3,30.1,83.3,30.1z"/>
	<linearGradient id="SVGID_12_" gradientUnits="userSpaceOnUse" x1="80.449" y1="31.3447" x2="84.1732" y2="40.0231">
		<stop  offset="0" style="stop-color:#359AD1"/>
		<stop  offset="1" style="stop-color:#46A6D7"/>
	</linearGradient>
	<path class="st11" d="M83.3,30.1h-5.2c0,4.9,2,9.3,5.2,12.5l3.7-3.7C84.7,36.6,83.3,33.5,83.3,30.1z"/>
	<linearGradient id="SVGID_13_" gradientUnits="userSpaceOnUse" x1="84.9901" y1="41.3237" x2="95.1498" y2="45.48">
		<stop  offset="0" style="stop-color:#46A6D7"/>
		<stop  offset="1" style="stop-color:#84C3E4"/>
	</linearGradient>
	<path class="st12" d="M95.6,42.4c-3.4,0-6.5-1.4-8.7-3.6l-3.7,3.7c3.2,3.2,7.5,5.1,12.4,5.1c0.1,0,0.1,0,0.2,0l0-5.2
		C95.6,42.4,95.6,42.4,95.6,42.4z"/>
	<g>
		<linearGradient id="SVGID_14_" gradientUnits="userSpaceOnUse" x1="95.5671" y1="49.256" x2="105.8594" y2="37.9135">
			<stop  offset="0.27" style="stop-color:#84C3E4"/>
			<stop  offset="1" style="stop-color:#84C3E4;stop-opacity:0"/>
		</linearGradient>
		<path class="st13" d="M105.3,37.6c-2.2,2.9-5.8,4.8-9.7,4.8v5.2c5.7,0,10.7-2.7,13.9-6.9L105.3,37.6z"/>
	</g>
	<linearGradient id="SVGID_15_" gradientUnits="userSpaceOnUse" x1="120.7073" y1="20.1882" x2="120.7073" y2="35.866">
		<stop  offset="0" style="stop-color:#00936A"/>
		<stop  offset="1" style="stop-color:#82B76D"/>
	</linearGradient>
	<rect x="118.1" y="20.1" class="st14" width="5.2" height="15.8"/>
	<linearGradient id="SVGID_16_" gradientUnits="userSpaceOnUse" x1="122.6681" y1="40.4932" x2="127.4544" y2="44.4398">
		<stop  offset="0" style="stop-color:#82B76D"/>
		<stop  offset="1" style="stop-color:#82B76D;stop-opacity:0"/>
	</linearGradient>
	<path class="st15" d="M123.3,35.8c0,3.8,1.7,5.4,4.8,7.5l-3,4.3c-4.5-2.9-7-6.3-7-11.8H123.3z"/>
	<g>
		<linearGradient id="SVGID_17_" gradientUnits="userSpaceOnUse" x1="46.9809" y1="20.2538" x2="59.0065" y2="20.2538">
			<stop  offset="4.702241e-03" style="stop-color:#D12A65"/>
			<stop  offset="0.9957" style="stop-color:#D35886"/>
		</linearGradient>
		<path class="st16" d="M58.6,12.6c-4.6,0-8.6,1.8-11.6,4.8v10.6c0.8-4.2,4.5-10.2,11.6-10.2c0.1,0,0.3,0,0.4,0v-5.2
			C58.9,12.6,58.7,12.6,58.6,12.6z"/>
	</g>
	<linearGradient id="SVGID_18_" gradientUnits="userSpaceOnUse" x1="65.9573" y1="18.8814" x2="65.9573" y2="28.1332">
		<stop  offset="2.103970e-02" style="stop-color:#D35886"/>
		<stop  offset="1" style="stop-color:#D35886;stop-opacity:0"/>
	</linearGradient>
	<path class="st17" d="M73.1,28.8h-5.2l0-1.7c0-5.2-4.1-9.2-9.1-9.2v-5.2C66.7,12.6,73.1,19,73.1,27V28.8z"/>
	<linearGradient id="SVGID_19_" gradientUnits="userSpaceOnUse" x1="70.2713" y1="26.1118" x2="70.5375" y2="28.8233">
		<stop  offset="0" style="stop-color:#D75685"/>
		<stop  offset="1" style="stop-color:#D75685;stop-opacity:0"/>
	</linearGradient>
	<line class="st18" x1="73.1" y1="28.8" x2="67.9" y2="28.8"/>
	<rect x="41.8" y="14" class="st19" width="5.2" height="18.3"/>
	<rect x="118.1" y="1.8" class="st19" width="5.2" height="18.3"/>
	<rect x="67.9" y="28.8" class="st19" width="5.2" height="18.3"/>
	<rect x="18.2" y="27" class="st19" width="18.3" height="5.2"/>
	<rect x="94.6" y="27" class="st19" width="18.3" height="5.2"/>
</g>
<text transform="matrix(1 0 0 1 -395.5453 -203.1131)" style="font-family:'UniversLTStd-Bold'; font-size:27.083px; letter-spacing:2;">UN SITIO CREADO POR </text>
</svg>
