<?xml version="1.0" encoding="utf-8"?>
<!-- Generator: Adobe Illustrator 25.1.0, SVG Export Plug-In . SVG Version: 6.00 Build 0)  -->
<svg version="1.1" id="Capa_1" xmlns="http://www.w3.org/2000/svg" xmlns:xlink="http://www.w3.org/1999/xlink" x="0px" y="0px"
	 viewBox="0 0 50 45" style="enable-background:new 0 0 50 45;" xml:space="preserve">
<style type="text/css">
	.st0{fill:#5C5C5C;}
</style>
<path class="st0" d="M42.7,5.9l-1-1c-0.9-0.9-2.2-1.4-3.5-1.4c-1.3,0-2.5,0.5-3.5,1.4L8.6,30.9c-0.3,0.3-0.6,0.8-0.8,1.2L6,37.5
	c-0.4,1.1-0.1,2.4,0.8,3.2c0.6,0.6,1.4,0.9,2.2,0.9c0.3,0,0.7-0.1,1-0.2l5.4-1.8c0.5-0.2,0.9-0.4,1.2-0.8l26.1-26.1
	c0.9-0.9,1.4-2.2,1.4-3.5C44.1,8,43.6,6.8,42.7,5.9z M14.4,36.7L9,38.5l1.8-5.4l21-21v0l3.6,3.6L14.4,36.7z M40.5,10.6l-2.9,2.9
	c0,0,0,0,0,0L34,9.9L36.9,7c0.4-0.4,0.8-0.5,1.3-0.5c0.5,0,0.9,0.2,1.3,0.5l1,1C41.2,8.8,41.2,9.9,40.5,10.6z"/>
</svg>
