<?xml version="1.0" encoding="utf-8"?>
<!-- Generator: Adobe Illustrator 24.0.3, SVG Export Plug-In . SVG Version: 6.00 Build 0)  -->
<svg version="1.1" id="Capa_1" xmlns="http://www.w3.org/2000/svg" xmlns:xlink="http://www.w3.org/1999/xlink" x="0px" y="0px"
	 viewBox="0 0 215 45" style="enable-background:new 0 0 215 45;" xml:space="preserve">
<style type="text/css">
	.st0{fill:#0455F6;}
	.st1{fill:#FFFFFF;}
	.st2{fill:#FA4683;}
	.st3{fill:#FB1064;}
</style>
<g>
	<polygon class="st0" points="203.1,42.15 2.5,42.15 11.9,2.61 212.5,2.61 	"/>
	<g>
		<polygon class="st1" points="26.3,21.53 22.19,21.53 21.8,23.65 25.9,23.65 		"/>
		<polygon class="st1" points="28.16,11.35 24.07,11.35 23.18,16.26 27.27,16.26 		"/>
		<polygon class="st1" points="19.95,33.63 24.07,33.63 24.93,28.91 20.81,28.91 		"/>
		<rect x="16.6" y="28.04" class="st2" width="4.37" height="0"/>
		<polygon class="st2" points="25.09,28.04 25.09,28.04 28.16,28.04 28.16,28.04 		"/>
		<g>
			<polygon class="st1" points="27.47,33.63 31.56,33.63 32.42,28.91 28.36,28.91 			"/>
			<polygon class="st1" points="35.68,11.35 31.56,11.35 30.66,16.26 34.76,16.26 			"/>
			<polygon class="st1" points="29.3,23.65 33.41,23.65 33.8,21.53 29.7,21.53 			"/>
			<polygon class="st3" points="23.38,17.14 18.34,17.14 18.34,20.65 22.7,20.65 26.83,20.65 29.87,20.65 33.96,20.65 39,20.65 
				39,17.14 34.6,17.14 30.5,17.14 27.47,17.14 			"/>
			<rect x="32.58" y="28.04" class="st2" width="5.04" height="0"/>
			<polygon class="st3" points="16.96,24.52 16.96,28.04 21.33,28.04 21.33,28.04 25.45,28.04 25.45,28.04 28.52,28.04 28.52,28.04 
				32.58,28.04 32.58,28.04 37.62,28.04 37.62,24.52 33.25,24.52 29.13,24.52 26.09,24.52 22,24.52 			"/>
		</g>
		<g>
			<path class="st1" d="M47.85,34.11c-3.68,0-6.2-2.69-5.5-6.49h2.24c-0.7,3.55,1.73,4.57,4.83,4.57c2.59,0,5.88-1.5,6.49-4.44
				c0.48-2.3-0.93-3.39-2.75-4.03c-3.48-1.25-8.92-2.43-7.86-7.42c0.86-4.03,5.05-6.23,8.7-6.23c3.04,0,6.78,1.05,6.33,5.5h-2.24
				c0.54-2.85-1.89-3.58-4.25-3.58c-2.4,0-5.63,1.21-6.23,4.03c-1.37,6.55,12.28,3.58,10.58,11.54
				C57.12,32.58,52.48,34.11,47.85,34.11z"/>
			<path class="st1" d="M65.72,17.59L62.3,33.63h-1.92l3.42-16.05H65.72z M66.87,12.95h-2.24l0.48-2.4h2.24L66.87,12.95z"/>
			<path class="st1" d="M68.4,33.63h-1.92l2.65-12.44c0.26-1.25,0.42-2.53,0.61-3.61h1.98l-0.42,2.37l0.06,0.06
				c1.53-1.98,3.55-2.91,5.63-2.91c5.24,0,4.67,4.64,4.28,6.49l-2.14,10.04h-1.92l2.21-10.36c0.58-2.78-0.67-4.41-3.29-4.41
				c-3.16,0-5.15,2.65-5.79,5.53L68.4,33.63z"/>
			<path class="st1" d="M88.06,10.55h14.48l-0.58,2.72H90.68l-1.5,7.19h10.74l-0.58,2.69H88.61l-1.63,7.67h11.54l-0.61,2.81H83.17
				L88.06,10.55z"/>
			<path class="st1" d="M116.29,33.63h-3.96l-3.2-6.43l-5.91,6.43H99.7l8.15-8.41l-4.38-7.64h3.93l3,6.04l5.75-6.04h3.55l-7.93,7.83
				L116.29,33.63z"/>
			<path class="st1" d="M130.39,22.73c0.1-0.74,0.45-3.36-2.46-3.36c-4.16,0-5.18,4.83-5.43,6.04c-0.7,3.29-0.58,6.36,2.62,6.36
				c2.56,0,3.84-1.92,4.22-3.48h3.04c-0.83,3.13-3.74,5.75-7.7,5.75c-1.09,0-3.52-0.22-4.83-2.08c-0.74-1.12-1.31-2.81-0.61-6.14
				c1.41-6.68,5.91-8.66,9.11-8.66c1.05,0,3.42,0.22,4.51,1.98c0.9,1.37,0.7,2.69,0.58,3.58H130.39z"/>
			<path class="st1" d="M140.14,17.59l-2.21,10.33c-0.32,1.57-0.42,3.55,2.65,3.55c1.5,0,3.04-0.51,4.16-1.79
				c0.9-0.96,1.15-2.21,1.31-3l1.95-9.08h3.1l-2.78,13.04c-0.06,0.32-0.38,2.11-0.54,3h-3.13l0.51-2.75
				c-0.8,1.12-2.27,2.91-5.72,2.91c-3.96,0-5.34-2.27-4.67-5.43l2.3-10.77H140.14z"/>
			<path class="st1" d="M155.29,28.87c-0.29,1.21-0.03,2.91,2.88,2.91c1.25,0,2.24-0.22,3.04-1.02c0.42-0.42,0.74-0.96,0.83-1.5
				c0.35-1.57-0.74-1.85-3-2.4c-3.2-0.77-5.85-1.44-5.15-4.79c0.61-2.94,3.58-4.86,7.29-4.86c2.01,0,4.7,0.58,5.27,2.49
				c0.22,0.9,0.06,1.66-0.1,2.33h-3.07c0.61-2.43-1.44-2.62-2.53-2.62c-0.45,0-3.26,0-3.77,2.3c-0.29,1.47,1.05,1.82,1.85,2.05
				c4.22,1.05,5.12,1.31,5.88,2.21c0.7,0.83,0.8,1.95,0.58,2.97c-0.38,1.79-1.69,3.32-3.04,4.06c-1.57,0.86-3.33,1.09-4.99,1.09
				c-3.26,0-6.01-1.34-5.15-5.21H155.29z"/>
			<path class="st1" d="M177.35,33.63c-0.06-0.8,0.03-1.57,0.22-2.4c-2.01,2.65-4.22,2.91-5.56,2.91c-3.68,0-5.24-2.08-4.67-4.73
				c0.29-1.28,1.15-3.32,3.8-4.7c1.95-0.96,4.51-1.05,5.79-1.05c0.77,0,1.25,0.03,2.17,0.1c0.42-1.98,0.61-2.85,0.16-3.55
				c-0.42-0.8-1.69-1.05-2.56-1.05c-3.04,0-3.64,2.08-3.8,2.72h-3c0.29-0.83,0.61-1.95,1.76-3.04c1.5-1.34,3.87-1.73,5.56-1.73
				c2.33,0,4.67,0.73,5.18,2.37c0.32,0.96,0.19,1.73,0.03,2.46l-1.76,7.67c-0.06,0.26-0.48,2.4-0.61,4.03H177.35z M176.97,25.74
				c-1.21,0-5.79,0-6.49,3.26c-0.22,1.02,0.03,2.78,2.72,2.78c1.53,0,2.81-0.61,3.8-1.73c0.9-1.09,1.12-1.98,1.66-4.22
				C178.12,25.77,177.7,25.74,176.97,25.74z"/>
			<path class="st1" d="M187.13,28.87c-0.29,1.21-0.03,2.91,2.88,2.91c1.25,0,2.24-0.22,3.04-1.02c0.42-0.42,0.74-0.96,0.83-1.5
				c0.35-1.57-0.74-1.85-3-2.4c-3.2-0.77-5.85-1.44-5.15-4.79c0.61-2.94,3.58-4.86,7.29-4.86c2.01,0,4.7,0.58,5.27,2.49
				c0.22,0.9,0.06,1.66-0.1,2.33h-3.07c0.61-2.43-1.44-2.62-2.53-2.62c-0.45,0-3.26,0-3.77,2.3c-0.29,1.47,1.05,1.82,1.85,2.05
				c4.22,1.05,5.12,1.31,5.88,2.21c0.7,0.83,0.8,1.95,0.58,2.97c-0.38,1.79-1.69,3.32-3.04,4.06c-1.57,0.86-3.32,1.09-4.99,1.09
				c-3.26,0-6.01-1.34-5.15-5.21H187.13z"/>
		</g>
	</g>
</g>
</svg>
